<mxfile host="app.diagrams.net" modified="2023-07-09T15:12:46.122Z" agent="Mozilla/5.0 (Windows NT 10.0; Win64; x64) AppleWebKit/537.36 (KHTML, like Gecko) Chrome/114.0.0.0 Safari/537.36 Edg/114.0.1823.67" etag="aYfRTOKJ2bYTxNDRrDZY" version="21.6.1" type="device">
  <diagram name="Page-1" id="SFd3gg3tdDfbMwlkqC_p">
    <mxGraphModel dx="1757" dy="1986" grid="0" gridSize="10" guides="1" tooltips="1" connect="1" arrows="1" fold="1" page="0" pageScale="1" pageWidth="850" pageHeight="1100" math="0" shadow="0">
      <root>
        <mxCell id="0" />
        <mxCell id="1" parent="0" />
        <mxCell id="zRy5J8WuRbFk49f6ZDlZ-3" value="Room" style="whiteSpace=wrap;html=1;align=center;" parent="1" vertex="1">
          <mxGeometry x="325" y="-109" width="100" height="40" as="geometry" />
        </mxCell>
        <mxCell id="zRy5J8WuRbFk49f6ZDlZ-5" style="rounded=0;orthogonalLoop=1;jettySize=auto;html=1;entryX=0;entryY=0.75;entryDx=0;entryDy=0;startArrow=none;startFill=0;strokeColor=default;endArrow=none;endFill=0;" parent="1" source="zRy5J8WuRbFk49f6ZDlZ-4" target="zRy5J8WuRbFk49f6ZDlZ-3" edge="1">
          <mxGeometry relative="1" as="geometry" />
        </mxCell>
        <mxCell id="zRy5J8WuRbFk49f6ZDlZ-4" value="capacity" style="ellipse;whiteSpace=wrap;html=1;align=center;" parent="1" vertex="1">
          <mxGeometry x="193" y="-74" width="100" height="40" as="geometry" />
        </mxCell>
        <mxCell id="zRy5J8WuRbFk49f6ZDlZ-7" style="rounded=0;orthogonalLoop=1;jettySize=auto;html=1;endArrow=none;endFill=0;" parent="1" source="zRy5J8WuRbFk49f6ZDlZ-6" target="zRy5J8WuRbFk49f6ZDlZ-3" edge="1">
          <mxGeometry relative="1" as="geometry" />
        </mxCell>
        <mxCell id="zRy5J8WuRbFk49f6ZDlZ-6" value="Room no" style="ellipse;whiteSpace=wrap;html=1;align=center;fontStyle=4;" parent="1" vertex="1">
          <mxGeometry x="176" y="-135" width="100" height="40" as="geometry" />
        </mxCell>
        <mxCell id="zRy5J8WuRbFk49f6ZDlZ-12" style="edgeStyle=none;shape=connector;rounded=0;orthogonalLoop=1;jettySize=auto;html=1;labelBackgroundColor=default;strokeColor=default;fontFamily=Helvetica;fontSize=11;fontColor=default;startArrow=none;startFill=0;endArrow=none;endFill=0;" parent="1" source="zRy5J8WuRbFk49f6ZDlZ-10" target="zRy5J8WuRbFk49f6ZDlZ-3" edge="1">
          <mxGeometry relative="1" as="geometry" />
        </mxCell>
        <mxCell id="zRy5J8WuRbFk49f6ZDlZ-10" value="No_of_Accommodations&amp;nbsp;" style="ellipse;whiteSpace=wrap;html=1;align=center;fontFamily=Helvetica;fontSize=11;fontColor=default;" parent="1" vertex="1">
          <mxGeometry x="280" y="-191" width="131" height="59" as="geometry" />
        </mxCell>
        <mxCell id="zRy5J8WuRbFk49f6ZDlZ-14" style="edgeStyle=none;shape=connector;rounded=0;orthogonalLoop=1;jettySize=auto;html=1;labelBackgroundColor=default;strokeColor=default;fontFamily=Helvetica;fontSize=11;fontColor=default;startArrow=none;startFill=0;endArrow=none;endFill=0;" parent="1" source="zRy5J8WuRbFk49f6ZDlZ-11" edge="1">
          <mxGeometry relative="1" as="geometry">
            <mxPoint x="354.4761962890625" y="-66.76187569754472" as="targetPoint" />
          </mxGeometry>
        </mxCell>
        <mxCell id="zRy5J8WuRbFk49f6ZDlZ-11" value="Room_Type" style="ellipse;whiteSpace=wrap;html=1;align=center;" parent="1" vertex="1">
          <mxGeometry x="293" y="-41" width="100" height="38" as="geometry" />
        </mxCell>
        <mxCell id="zRy5J8WuRbFk49f6ZDlZ-16" style="edgeStyle=none;shape=connector;rounded=0;orthogonalLoop=1;jettySize=auto;html=1;labelBackgroundColor=default;strokeColor=default;fontFamily=Helvetica;fontSize=11;fontColor=default;startArrow=none;startFill=0;endArrow=none;endFill=0;" parent="1" source="zRy5J8WuRbFk49f6ZDlZ-15" edge="1">
          <mxGeometry relative="1" as="geometry">
            <mxPoint x="426.09522646949404" y="-69.8095063709078" as="targetPoint" />
          </mxGeometry>
        </mxCell>
        <mxCell id="zRy5J8WuRbFk49f6ZDlZ-15" value="Vacancy" style="ellipse;whiteSpace=wrap;html=1;align=center;" parent="1" vertex="1">
          <mxGeometry x="405" y="-55" width="100" height="38" as="geometry" />
        </mxCell>
        <mxCell id="zRy5J8WuRbFk49f6ZDlZ-18" style="edgeStyle=none;shape=connector;rounded=0;orthogonalLoop=1;jettySize=auto;html=1;entryX=1;entryY=0.5;entryDx=0;entryDy=0;labelBackgroundColor=default;strokeColor=default;fontFamily=Helvetica;fontSize=11;fontColor=default;startArrow=none;startFill=0;endArrow=none;endFill=0;" parent="1" source="zRy5J8WuRbFk49f6ZDlZ-17" target="zRy5J8WuRbFk49f6ZDlZ-3" edge="1">
          <mxGeometry relative="1" as="geometry" />
        </mxCell>
        <mxCell id="zRy5J8WuRbFk49f6ZDlZ-17" value="Floor" style="ellipse;whiteSpace=wrap;html=1;align=center;" parent="1" vertex="1">
          <mxGeometry x="441" y="-112" width="100" height="38" as="geometry" />
        </mxCell>
        <mxCell id="zRy5J8WuRbFk49f6ZDlZ-20" style="edgeStyle=none;shape=connector;rounded=0;orthogonalLoop=1;jettySize=auto;html=1;labelBackgroundColor=default;strokeColor=default;fontFamily=Helvetica;fontSize=11;fontColor=default;startArrow=none;startFill=0;endArrow=none;endFill=0;exitX=0.5;exitY=1;exitDx=0;exitDy=0;" parent="1" source="zRy5J8WuRbFk49f6ZDlZ-19" target="zRy5J8WuRbFk49f6ZDlZ-3" edge="1">
          <mxGeometry relative="1" as="geometry" />
        </mxCell>
        <mxCell id="zRy5J8WuRbFk49f6ZDlZ-34" style="shape=connector;rounded=0;orthogonalLoop=1;jettySize=auto;html=1;labelBackgroundColor=default;strokeColor=default;fontFamily=Helvetica;fontSize=11;fontColor=default;startArrow=none;startFill=0;endArrow=none;endFill=0;exitX=0.5;exitY=0;exitDx=0;exitDy=0;entryX=0.178;entryY=0.965;entryDx=0;entryDy=0;entryPerimeter=0;" parent="1" source="zRy5J8WuRbFk49f6ZDlZ-19" edge="1" target="zRy5J8WuRbFk49f6ZDlZ-21">
          <mxGeometry relative="1" as="geometry">
            <mxPoint x="619.0769418569712" y="-398.1538743239182" as="targetPoint" />
            <mxPoint x="514" y="-289" as="sourcePoint" />
          </mxGeometry>
        </mxCell>
        <mxCell id="zRy5J8WuRbFk49f6ZDlZ-19" value="Allots" style="shape=rhombus;perimeter=rhombusPerimeter;whiteSpace=wrap;html=1;align=center;fontFamily=Helvetica;fontSize=11;fontColor=default;" parent="1" vertex="1">
          <mxGeometry x="404" y="-306" width="120" height="60" as="geometry" />
        </mxCell>
        <mxCell id="zRy5J8WuRbFk49f6ZDlZ-21" value="Student" style="whiteSpace=wrap;html=1;align=center;" parent="1" vertex="1">
          <mxGeometry x="616" y="-442" width="100" height="40" as="geometry" />
        </mxCell>
        <mxCell id="zRy5J8WuRbFk49f6ZDlZ-22" style="rounded=0;orthogonalLoop=1;jettySize=auto;html=1;entryX=0;entryY=0.75;entryDx=0;entryDy=0;startArrow=none;startFill=0;strokeColor=default;endArrow=none;endFill=0;" parent="1" source="zRy5J8WuRbFk49f6ZDlZ-23" target="zRy5J8WuRbFk49f6ZDlZ-21" edge="1">
          <mxGeometry relative="1" as="geometry" />
        </mxCell>
        <mxCell id="zRy5J8WuRbFk49f6ZDlZ-23" value="Name" style="ellipse;whiteSpace=wrap;html=1;align=center;" parent="1" vertex="1">
          <mxGeometry x="484" y="-407" width="100" height="40" as="geometry" />
        </mxCell>
        <mxCell id="zRy5J8WuRbFk49f6ZDlZ-24" style="rounded=0;orthogonalLoop=1;jettySize=auto;html=1;endArrow=none;endFill=0;" parent="1" source="zRy5J8WuRbFk49f6ZDlZ-25" target="zRy5J8WuRbFk49f6ZDlZ-21" edge="1">
          <mxGeometry relative="1" as="geometry" />
        </mxCell>
        <mxCell id="zRy5J8WuRbFk49f6ZDlZ-25" value="Stu_Id" style="ellipse;whiteSpace=wrap;html=1;align=center;fontStyle=4;" parent="1" vertex="1">
          <mxGeometry x="467" y="-468" width="100" height="40" as="geometry" />
        </mxCell>
        <mxCell id="zRy5J8WuRbFk49f6ZDlZ-26" style="edgeStyle=none;shape=connector;rounded=0;orthogonalLoop=1;jettySize=auto;html=1;labelBackgroundColor=default;strokeColor=default;fontFamily=Helvetica;fontSize=11;fontColor=default;startArrow=none;startFill=0;endArrow=none;endFill=0;" parent="1" source="zRy5J8WuRbFk49f6ZDlZ-27" target="zRy5J8WuRbFk49f6ZDlZ-21" edge="1">
          <mxGeometry relative="1" as="geometry" />
        </mxCell>
        <mxCell id="zRy5J8WuRbFk49f6ZDlZ-27" value="Year of Study" style="ellipse;whiteSpace=wrap;html=1;align=center;fontFamily=Helvetica;fontSize=11;fontColor=default;" parent="1" vertex="1">
          <mxGeometry x="571" y="-505" width="100" height="40" as="geometry" />
        </mxCell>
        <mxCell id="zRy5J8WuRbFk49f6ZDlZ-28" style="edgeStyle=none;shape=connector;rounded=0;orthogonalLoop=1;jettySize=auto;html=1;labelBackgroundColor=default;strokeColor=default;fontFamily=Helvetica;fontSize=11;fontColor=default;startArrow=none;startFill=0;endArrow=none;endFill=0;" parent="1" source="zRy5J8WuRbFk49f6ZDlZ-29" edge="1">
          <mxGeometry relative="1" as="geometry">
            <mxPoint x="645.4761962890625" y="-399.7618756975447" as="targetPoint" />
          </mxGeometry>
        </mxCell>
        <mxCell id="zRy5J8WuRbFk49f6ZDlZ-29" value="DOB" style="ellipse;whiteSpace=wrap;html=1;align=center;" parent="1" vertex="1">
          <mxGeometry x="584" y="-363" width="80" height="20" as="geometry" />
        </mxCell>
        <mxCell id="zRy5J8WuRbFk49f6ZDlZ-30" style="edgeStyle=none;shape=connector;rounded=0;orthogonalLoop=1;jettySize=auto;html=1;labelBackgroundColor=default;strokeColor=default;fontFamily=Helvetica;fontSize=11;fontColor=default;startArrow=none;startFill=0;endArrow=none;endFill=0;" parent="1" source="zRy5J8WuRbFk49f6ZDlZ-31" edge="1">
          <mxGeometry relative="1" as="geometry">
            <mxPoint x="717.095226469494" y="-402.8095063709078" as="targetPoint" />
          </mxGeometry>
        </mxCell>
        <mxCell id="zRy5J8WuRbFk49f6ZDlZ-31" value="Department&amp;nbsp;" style="ellipse;whiteSpace=wrap;html=1;align=center;" parent="1" vertex="1">
          <mxGeometry x="774" y="-406" width="100" height="38" as="geometry" />
        </mxCell>
        <mxCell id="zRy5J8WuRbFk49f6ZDlZ-32" style="edgeStyle=none;shape=connector;rounded=0;orthogonalLoop=1;jettySize=auto;html=1;entryX=1;entryY=0.5;entryDx=0;entryDy=0;labelBackgroundColor=default;strokeColor=default;fontFamily=Helvetica;fontSize=11;fontColor=default;startArrow=none;startFill=0;endArrow=none;endFill=0;" parent="1" source="zRy5J8WuRbFk49f6ZDlZ-33" target="zRy5J8WuRbFk49f6ZDlZ-21" edge="1">
          <mxGeometry relative="1" as="geometry" />
        </mxCell>
        <mxCell id="zRy5J8WuRbFk49f6ZDlZ-33" value="Mobile No" style="ellipse;whiteSpace=wrap;html=1;align=center;" parent="1" vertex="1">
          <mxGeometry x="732" y="-445" width="100" height="38" as="geometry" />
        </mxCell>
        <mxCell id="eAh--KmHeIF0BHGOqn6b-108" style="edgeStyle=none;shape=connector;rounded=0;orthogonalLoop=1;jettySize=auto;html=1;labelBackgroundColor=default;strokeColor=default;fontFamily=Helvetica;fontSize=11;fontColor=default;endArrow=none;endFill=0;" parent="1" source="zRy5J8WuRbFk49f6ZDlZ-35" edge="1">
          <mxGeometry relative="1" as="geometry">
            <mxPoint x="782.9999511718752" y="-14.977783203125" as="targetPoint" />
          </mxGeometry>
        </mxCell>
        <mxCell id="zRy5J8WuRbFk49f6ZDlZ-35" value="Attendance" style="whiteSpace=wrap;html=1;align=center;" parent="1" vertex="1">
          <mxGeometry x="728" y="-57.5" width="100" height="40" as="geometry" />
        </mxCell>
        <mxCell id="zRy5J8WuRbFk49f6ZDlZ-36" style="rounded=0;orthogonalLoop=1;jettySize=auto;html=1;entryX=0;entryY=0.75;entryDx=0;entryDy=0;startArrow=none;startFill=0;strokeColor=default;endArrow=none;endFill=0;" parent="1" source="zRy5J8WuRbFk49f6ZDlZ-37" target="zRy5J8WuRbFk49f6ZDlZ-35" edge="1">
          <mxGeometry relative="1" as="geometry" />
        </mxCell>
        <mxCell id="zRy5J8WuRbFk49f6ZDlZ-37" value="Date" style="ellipse;whiteSpace=wrap;html=1;align=center;" parent="1" vertex="1">
          <mxGeometry x="596" y="-17.5" width="100" height="40" as="geometry" />
        </mxCell>
        <mxCell id="zRy5J8WuRbFk49f6ZDlZ-38" style="rounded=0;orthogonalLoop=1;jettySize=auto;html=1;endArrow=none;endFill=0;" parent="1" source="zRy5J8WuRbFk49f6ZDlZ-39" target="zRy5J8WuRbFk49f6ZDlZ-35" edge="1">
          <mxGeometry relative="1" as="geometry" />
        </mxCell>
        <mxCell id="zRy5J8WuRbFk49f6ZDlZ-39" value="Stu_Id" style="ellipse;whiteSpace=wrap;html=1;align=center;fontStyle=4;" parent="1" vertex="1">
          <mxGeometry x="588" y="-74" width="100" height="40" as="geometry" />
        </mxCell>
        <mxCell id="zRy5J8WuRbFk49f6ZDlZ-40" style="edgeStyle=none;shape=connector;rounded=0;orthogonalLoop=1;jettySize=auto;html=1;labelBackgroundColor=default;strokeColor=default;fontFamily=Helvetica;fontSize=11;fontColor=default;startArrow=none;startFill=0;endArrow=none;endFill=0;" parent="1" source="zRy5J8WuRbFk49f6ZDlZ-41" target="zRy5J8WuRbFk49f6ZDlZ-35" edge="1">
          <mxGeometry relative="1" as="geometry" />
        </mxCell>
        <mxCell id="zRy5J8WuRbFk49f6ZDlZ-41" value="No_of_Days" style="ellipse;whiteSpace=wrap;html=1;align=center;fontFamily=Helvetica;fontSize=11;fontColor=default;" parent="1" vertex="1">
          <mxGeometry x="727" y="-120.5" width="100" height="40" as="geometry" />
        </mxCell>
        <mxCell id="zRy5J8WuRbFk49f6ZDlZ-42" style="edgeStyle=none;shape=connector;rounded=0;orthogonalLoop=1;jettySize=auto;html=1;labelBackgroundColor=default;strokeColor=default;fontFamily=Helvetica;fontSize=11;fontColor=default;startArrow=none;startFill=0;endArrow=none;endFill=0;" parent="1" source="zRy5J8WuRbFk49f6ZDlZ-43" edge="1">
          <mxGeometry relative="1" as="geometry">
            <mxPoint x="758" y="-15" as="targetPoint" />
          </mxGeometry>
        </mxCell>
        <mxCell id="zRy5J8WuRbFk49f6ZDlZ-43" value="Status" style="ellipse;whiteSpace=wrap;html=1;align=center;" parent="1" vertex="1">
          <mxGeometry x="691" y="15" width="100" height="38" as="geometry" />
        </mxCell>
        <mxCell id="zRy5J8WuRbFk49f6ZDlZ-44" style="edgeStyle=none;shape=connector;rounded=0;orthogonalLoop=1;jettySize=auto;html=1;labelBackgroundColor=default;strokeColor=default;fontFamily=Helvetica;fontSize=11;fontColor=default;startArrow=none;startFill=0;endArrow=none;endFill=0;entryX=0.699;entryY=1.01;entryDx=0;entryDy=0;entryPerimeter=0;" parent="1" source="zRy5J8WuRbFk49f6ZDlZ-45" target="zRy5J8WuRbFk49f6ZDlZ-35" edge="1">
          <mxGeometry relative="1" as="geometry">
            <mxPoint x="903.095226469494" y="-18.309506370907798" as="targetPoint" />
          </mxGeometry>
        </mxCell>
        <mxCell id="zRy5J8WuRbFk49f6ZDlZ-45" value="IN_time" style="ellipse;whiteSpace=wrap;html=1;align=center;" parent="1" vertex="1">
          <mxGeometry x="796" y="15" width="100" height="38" as="geometry" />
        </mxCell>
        <mxCell id="zRy5J8WuRbFk49f6ZDlZ-46" style="edgeStyle=none;shape=connector;rounded=0;orthogonalLoop=1;jettySize=auto;html=1;entryX=1;entryY=0.5;entryDx=0;entryDy=0;labelBackgroundColor=default;strokeColor=default;fontFamily=Helvetica;fontSize=11;fontColor=default;startArrow=none;startFill=0;endArrow=none;endFill=0;" parent="1" source="zRy5J8WuRbFk49f6ZDlZ-47" target="zRy5J8WuRbFk49f6ZDlZ-35" edge="1">
          <mxGeometry relative="1" as="geometry" />
        </mxCell>
        <mxCell id="zRy5J8WuRbFk49f6ZDlZ-47" value="OUT_Time" style="ellipse;whiteSpace=wrap;html=1;align=center;" parent="1" vertex="1">
          <mxGeometry x="839" y="-30" width="100" height="38" as="geometry" />
        </mxCell>
        <mxCell id="zRy5J8WuRbFk49f6ZDlZ-49" style="edgeStyle=none;shape=connector;rounded=0;orthogonalLoop=1;jettySize=auto;html=1;labelBackgroundColor=default;strokeColor=default;fontFamily=Helvetica;fontSize=11;fontColor=default;startArrow=none;startFill=0;endArrow=none;endFill=0;exitX=0;exitY=0.5;exitDx=0;exitDy=0;entryX=0.5;entryY=1;entryDx=0;entryDy=0;" parent="1" source="zRy5J8WuRbFk49f6ZDlZ-124" edge="1" target="zRy5J8WuRbFk49f6ZDlZ-21">
          <mxGeometry relative="1" as="geometry">
            <mxPoint x="675.9999898274741" y="-400.33332316080714" as="targetPoint" />
            <Array as="points" />
          </mxGeometry>
        </mxCell>
        <mxCell id="zRy5J8WuRbFk49f6ZDlZ-51" value="Fees" style="whiteSpace=wrap;html=1;align=center;" parent="1" vertex="1">
          <mxGeometry x="1068" y="-633" width="100" height="40" as="geometry" />
        </mxCell>
        <mxCell id="zRy5J8WuRbFk49f6ZDlZ-52" style="rounded=0;orthogonalLoop=1;jettySize=auto;html=1;entryX=0;entryY=0.75;entryDx=0;entryDy=0;startArrow=none;startFill=0;strokeColor=default;endArrow=none;endFill=0;" parent="1" source="zRy5J8WuRbFk49f6ZDlZ-53" target="zRy5J8WuRbFk49f6ZDlZ-51" edge="1">
          <mxGeometry relative="1" as="geometry" />
        </mxCell>
        <mxCell id="zRy5J8WuRbFk49f6ZDlZ-53" value="Stu_ID" style="ellipse;whiteSpace=wrap;html=1;align=center;" parent="1" vertex="1">
          <mxGeometry x="922" y="-628" width="100" height="40" as="geometry" />
        </mxCell>
        <mxCell id="zRy5J8WuRbFk49f6ZDlZ-54" style="rounded=0;orthogonalLoop=1;jettySize=auto;html=1;endArrow=none;endFill=0;" parent="1" source="zRy5J8WuRbFk49f6ZDlZ-55" target="zRy5J8WuRbFk49f6ZDlZ-51" edge="1">
          <mxGeometry relative="1" as="geometry" />
        </mxCell>
        <mxCell id="zRy5J8WuRbFk49f6ZDlZ-55" value="Trans ID" style="ellipse;whiteSpace=wrap;html=1;align=center;fontStyle=4;" parent="1" vertex="1">
          <mxGeometry x="991" y="-685" width="100" height="40" as="geometry" />
        </mxCell>
        <mxCell id="zRy5J8WuRbFk49f6ZDlZ-56" style="edgeStyle=none;shape=connector;rounded=0;orthogonalLoop=1;jettySize=auto;html=1;labelBackgroundColor=default;strokeColor=default;fontFamily=Helvetica;fontSize=11;fontColor=default;startArrow=none;startFill=0;endArrow=none;endFill=0;" parent="1" source="zRy5J8WuRbFk49f6ZDlZ-57" target="zRy5J8WuRbFk49f6ZDlZ-51" edge="1">
          <mxGeometry relative="1" as="geometry" />
        </mxCell>
        <mxCell id="zRy5J8WuRbFk49f6ZDlZ-57" value="Total_Fee" style="ellipse;whiteSpace=wrap;html=1;align=center;fontFamily=Helvetica;fontSize=11;fontColor=default;" parent="1" vertex="1">
          <mxGeometry x="1100" y="-702" width="100" height="40" as="geometry" />
        </mxCell>
        <mxCell id="zRy5J8WuRbFk49f6ZDlZ-58" style="edgeStyle=none;shape=connector;rounded=0;orthogonalLoop=1;jettySize=auto;html=1;labelBackgroundColor=default;strokeColor=default;fontFamily=Helvetica;fontSize=11;fontColor=default;startArrow=none;startFill=0;endArrow=none;endFill=0;" parent="1" source="zRy5J8WuRbFk49f6ZDlZ-59" edge="1" target="zRy5J8WuRbFk49f6ZDlZ-51">
          <mxGeometry relative="1" as="geometry">
            <mxPoint x="1097.4761962890625" y="-590.7618756975447" as="targetPoint" />
          </mxGeometry>
        </mxCell>
        <mxCell id="zRy5J8WuRbFk49f6ZDlZ-59" value="Status" style="ellipse;whiteSpace=wrap;html=1;align=center;" parent="1" vertex="1">
          <mxGeometry x="991" y="-558" width="100" height="38" as="geometry" />
        </mxCell>
        <mxCell id="zRy5J8WuRbFk49f6ZDlZ-60" style="edgeStyle=none;shape=connector;rounded=0;orthogonalLoop=1;jettySize=auto;html=1;labelBackgroundColor=default;strokeColor=default;fontFamily=Helvetica;fontSize=11;fontColor=default;startArrow=none;startFill=0;endArrow=none;endFill=0;" parent="1" source="zRy5J8WuRbFk49f6ZDlZ-61" edge="1">
          <mxGeometry relative="1" as="geometry">
            <mxPoint x="1169.095226469494" y="-593.8095063709078" as="targetPoint" />
          </mxGeometry>
        </mxCell>
        <mxCell id="zRy5J8WuRbFk49f6ZDlZ-61" value="Date" style="ellipse;whiteSpace=wrap;html=1;align=center;" parent="1" vertex="1">
          <mxGeometry x="1148" y="-579" width="100" height="38" as="geometry" />
        </mxCell>
        <mxCell id="zRy5J8WuRbFk49f6ZDlZ-62" style="edgeStyle=none;shape=connector;rounded=0;orthogonalLoop=1;jettySize=auto;html=1;entryX=1;entryY=0.5;entryDx=0;entryDy=0;labelBackgroundColor=default;strokeColor=default;fontFamily=Helvetica;fontSize=11;fontColor=default;startArrow=none;startFill=0;endArrow=none;endFill=0;" parent="1" source="zRy5J8WuRbFk49f6ZDlZ-63" target="zRy5J8WuRbFk49f6ZDlZ-51" edge="1">
          <mxGeometry relative="1" as="geometry" />
        </mxCell>
        <mxCell id="zRy5J8WuRbFk49f6ZDlZ-63" value="MOD" style="ellipse;whiteSpace=wrap;html=1;align=center;" parent="1" vertex="1">
          <mxGeometry x="1184" y="-636" width="100" height="38" as="geometry" />
        </mxCell>
        <mxCell id="zRy5J8WuRbFk49f6ZDlZ-67" style="edgeStyle=none;shape=connector;rounded=0;orthogonalLoop=1;jettySize=auto;html=1;entryX=0.5;entryY=1;entryDx=0;entryDy=0;labelBackgroundColor=default;strokeColor=default;fontFamily=Helvetica;fontSize=11;fontColor=default;startArrow=none;startFill=0;endArrow=none;endFill=0;" parent="1" source="zRy5J8WuRbFk49f6ZDlZ-65" target="zRy5J8WuRbFk49f6ZDlZ-51" edge="1">
          <mxGeometry relative="1" as="geometry" />
        </mxCell>
        <mxCell id="zRy5J8WuRbFk49f6ZDlZ-118" style="edgeStyle=none;shape=connector;rounded=0;orthogonalLoop=1;jettySize=auto;html=1;labelBackgroundColor=default;strokeColor=default;fontFamily=Helvetica;fontSize=11;fontColor=default;startArrow=none;startFill=0;endArrow=none;endFill=0;exitX=0.211;exitY=0.532;exitDx=0;exitDy=0;exitPerimeter=0;" parent="1" source="zRy5J8WuRbFk49f6ZDlZ-65" edge="1">
          <mxGeometry relative="1" as="geometry">
            <mxPoint x="1063" y="-431" as="targetPoint" />
            <Array as="points">
              <mxPoint x="1060" y="-431" />
            </Array>
          </mxGeometry>
        </mxCell>
        <mxCell id="zRy5J8WuRbFk49f6ZDlZ-119" style="edgeStyle=none;shape=connector;rounded=0;orthogonalLoop=1;jettySize=auto;html=1;labelBackgroundColor=default;strokeColor=default;fontFamily=Helvetica;fontSize=11;fontColor=default;startArrow=none;startFill=0;endArrow=none;endFill=0;exitX=0.762;exitY=0.477;exitDx=0;exitDy=0;exitPerimeter=0;" parent="1" source="zRy5J8WuRbFk49f6ZDlZ-65" target="zRy5J8WuRbFk49f6ZDlZ-82" edge="1">
          <mxGeometry relative="1" as="geometry" />
        </mxCell>
        <mxCell id="zRy5J8WuRbFk49f6ZDlZ-65" value="Is a" style="strokeWidth=2;html=1;shape=mxgraph.flowchart.merge_or_storage;whiteSpace=wrap;fontFamily=Helvetica;fontSize=11;fontColor=default;" parent="1" vertex="1">
          <mxGeometry x="1091" y="-504" width="86" height="39" as="geometry" />
        </mxCell>
        <mxCell id="zRy5J8WuRbFk49f6ZDlZ-66" style="edgeStyle=none;shape=connector;rounded=0;orthogonalLoop=1;jettySize=auto;html=1;exitX=0.5;exitY=0;exitDx=0;exitDy=0;labelBackgroundColor=default;strokeColor=default;fontFamily=Helvetica;fontSize=11;fontColor=default;startArrow=none;startFill=0;endArrow=none;endFill=0;" parent="1" source="zRy5J8WuRbFk49f6ZDlZ-59" target="zRy5J8WuRbFk49f6ZDlZ-59" edge="1">
          <mxGeometry relative="1" as="geometry" />
        </mxCell>
        <mxCell id="zRy5J8WuRbFk49f6ZDlZ-68" value="Hostel Fees" style="whiteSpace=wrap;html=1;align=center;" parent="1" vertex="1">
          <mxGeometry x="1000" y="-436" width="100" height="40" as="geometry" />
        </mxCell>
        <mxCell id="zRy5J8WuRbFk49f6ZDlZ-73" style="edgeStyle=none;shape=connector;rounded=0;orthogonalLoop=1;jettySize=auto;html=1;labelBackgroundColor=default;strokeColor=default;fontFamily=Helvetica;fontSize=11;fontColor=default;startArrow=none;startFill=0;endArrow=none;endFill=0;" parent="1" source="zRy5J8WuRbFk49f6ZDlZ-74" target="zRy5J8WuRbFk49f6ZDlZ-68" edge="1">
          <mxGeometry relative="1" as="geometry" />
        </mxCell>
        <mxCell id="zRy5J8WuRbFk49f6ZDlZ-74" value="No_of_Days_Present" style="ellipse;whiteSpace=wrap;html=1;align=center;fontFamily=Helvetica;fontSize=11;fontColor=default;" parent="1" vertex="1">
          <mxGeometry x="915" y="-358" width="111" height="46" as="geometry" />
        </mxCell>
        <mxCell id="zRy5J8WuRbFk49f6ZDlZ-81" style="edgeStyle=none;shape=connector;rounded=0;orthogonalLoop=1;jettySize=auto;html=1;exitX=0.5;exitY=0;exitDx=0;exitDy=0;labelBackgroundColor=default;strokeColor=default;fontFamily=Helvetica;fontSize=11;fontColor=default;startArrow=none;startFill=0;endArrow=none;endFill=0;" parent="1" edge="1">
          <mxGeometry relative="1" as="geometry">
            <mxPoint x="946" y="-351.9999999999998" as="sourcePoint" />
            <mxPoint x="946" y="-351.9999999999998" as="targetPoint" />
          </mxGeometry>
        </mxCell>
        <mxCell id="zRy5J8WuRbFk49f6ZDlZ-82" value="Mess Fees" style="whiteSpace=wrap;html=1;align=center;" parent="1" vertex="1">
          <mxGeometry x="1221" y="-407" width="100" height="40" as="geometry" />
        </mxCell>
        <mxCell id="zRy5J8WuRbFk49f6ZDlZ-87" style="edgeStyle=none;shape=connector;rounded=0;orthogonalLoop=1;jettySize=auto;html=1;labelBackgroundColor=default;strokeColor=default;fontFamily=Helvetica;fontSize=11;fontColor=default;startArrow=none;startFill=0;endArrow=none;endFill=0;" parent="1" source="zRy5J8WuRbFk49f6ZDlZ-88" target="zRy5J8WuRbFk49f6ZDlZ-82" edge="1">
          <mxGeometry relative="1" as="geometry" />
        </mxCell>
        <mxCell id="zRy5J8WuRbFk49f6ZDlZ-88" value="No_of_Tokens_Issued" style="ellipse;whiteSpace=wrap;html=1;align=center;fontFamily=Helvetica;fontSize=11;fontColor=default;" parent="1" vertex="1">
          <mxGeometry x="1297" y="-341" width="114" height="47" as="geometry" />
        </mxCell>
        <mxCell id="zRy5J8WuRbFk49f6ZDlZ-95" style="edgeStyle=none;shape=connector;rounded=0;orthogonalLoop=1;jettySize=auto;html=1;exitX=0.5;exitY=0;exitDx=0;exitDy=0;labelBackgroundColor=default;strokeColor=default;fontFamily=Helvetica;fontSize=11;fontColor=default;startArrow=none;startFill=0;endArrow=none;endFill=0;" parent="1" edge="1">
          <mxGeometry relative="1" as="geometry">
            <mxPoint x="1196" y="-333" as="sourcePoint" />
            <mxPoint x="1196" y="-333" as="targetPoint" />
          </mxGeometry>
        </mxCell>
        <mxCell id="zRy5J8WuRbFk49f6ZDlZ-96" value="Hostel_Store" style="whiteSpace=wrap;html=1;align=center;" parent="1" vertex="1">
          <mxGeometry x="382" y="-876" width="100" height="40" as="geometry" />
        </mxCell>
        <mxCell id="zRy5J8WuRbFk49f6ZDlZ-101" style="edgeStyle=none;shape=connector;rounded=0;orthogonalLoop=1;jettySize=auto;html=1;labelBackgroundColor=default;strokeColor=default;fontFamily=Helvetica;fontSize=11;fontColor=default;startArrow=none;startFill=0;endArrow=none;endFill=0;" parent="1" source="zRy5J8WuRbFk49f6ZDlZ-102" target="zRy5J8WuRbFk49f6ZDlZ-96" edge="1">
          <mxGeometry relative="1" as="geometry" />
        </mxCell>
        <mxCell id="zRy5J8WuRbFk49f6ZDlZ-102" value="Item" style="ellipse;whiteSpace=wrap;html=1;align=center;fontFamily=Helvetica;fontSize=11;fontColor=default;" parent="1" vertex="1">
          <mxGeometry x="241" y="-922" width="100" height="40" as="geometry" />
        </mxCell>
        <mxCell id="zRy5J8WuRbFk49f6ZDlZ-105" style="edgeStyle=none;shape=connector;rounded=0;orthogonalLoop=1;jettySize=auto;html=1;labelBackgroundColor=default;strokeColor=default;fontFamily=Helvetica;fontSize=11;fontColor=default;startArrow=none;startFill=0;endArrow=none;endFill=0;" parent="1" source="zRy5J8WuRbFk49f6ZDlZ-106" edge="1">
          <mxGeometry relative="1" as="geometry">
            <mxPoint x="483.09522646949404" y="-836.8095063709078" as="targetPoint" />
          </mxGeometry>
        </mxCell>
        <mxCell id="zRy5J8WuRbFk49f6ZDlZ-106" value="Price_of_Item" style="ellipse;whiteSpace=wrap;html=1;align=center;" parent="1" vertex="1">
          <mxGeometry x="524" y="-852" width="100" height="38" as="geometry" />
        </mxCell>
        <mxCell id="zRy5J8WuRbFk49f6ZDlZ-107" style="edgeStyle=none;shape=connector;rounded=0;orthogonalLoop=1;jettySize=auto;html=1;entryX=0.75;entryY=0;entryDx=0;entryDy=0;labelBackgroundColor=default;strokeColor=default;fontFamily=Helvetica;fontSize=11;fontColor=default;startArrow=none;startFill=0;endArrow=none;endFill=0;" parent="1" source="zRy5J8WuRbFk49f6ZDlZ-108" target="zRy5J8WuRbFk49f6ZDlZ-96" edge="1">
          <mxGeometry relative="1" as="geometry" />
        </mxCell>
        <mxCell id="zRy5J8WuRbFk49f6ZDlZ-108" value="Quantity_Available&amp;nbsp;" style="ellipse;whiteSpace=wrap;html=1;align=center;" parent="1" vertex="1">
          <mxGeometry x="396" y="-935" width="109" height="39" as="geometry" />
        </mxCell>
        <mxCell id="zRy5J8WuRbFk49f6ZDlZ-111" style="edgeStyle=none;shape=connector;rounded=0;orthogonalLoop=1;jettySize=auto;html=1;labelBackgroundColor=default;strokeColor=default;fontFamily=Helvetica;fontSize=11;fontColor=default;startArrow=none;startFill=0;endArrow=none;endFill=0;" parent="1" source="zRy5J8WuRbFk49f6ZDlZ-110" edge="1">
          <mxGeometry relative="1" as="geometry">
            <mxPoint x="485" y="-870" as="targetPoint" />
            <Array as="points">
              <mxPoint x="503" y="-876" />
            </Array>
          </mxGeometry>
        </mxCell>
        <mxCell id="zRy5J8WuRbFk49f6ZDlZ-110" value="Quantity_Sold" style="ellipse;whiteSpace=wrap;html=1;align=center;" parent="1" vertex="1">
          <mxGeometry x="516" y="-922" width="100" height="38" as="geometry" />
        </mxCell>
        <mxCell id="zRy5J8WuRbFk49f6ZDlZ-113" style="edgeStyle=none;shape=connector;rounded=0;orthogonalLoop=1;jettySize=auto;html=1;labelBackgroundColor=default;strokeColor=default;fontFamily=Helvetica;fontSize=11;fontColor=default;startArrow=none;startFill=0;endArrow=none;endFill=0;" parent="1" source="zRy5J8WuRbFk49f6ZDlZ-112" target="zRy5J8WuRbFk49f6ZDlZ-96" edge="1">
          <mxGeometry relative="1" as="geometry" />
        </mxCell>
        <mxCell id="zRy5J8WuRbFk49f6ZDlZ-112" value="Amount _of_Item _Sold&amp;nbsp;" style="ellipse;whiteSpace=wrap;html=1;align=center;" parent="1" vertex="1">
          <mxGeometry x="186" y="-865" width="142" height="41" as="geometry" />
        </mxCell>
        <mxCell id="zRy5J8WuRbFk49f6ZDlZ-115" style="edgeStyle=none;shape=connector;rounded=0;orthogonalLoop=1;jettySize=auto;html=1;labelBackgroundColor=default;strokeColor=default;fontFamily=Helvetica;fontSize=11;fontColor=default;startArrow=none;startFill=0;endArrow=none;endFill=0;" parent="1" source="zRy5J8WuRbFk49f6ZDlZ-114" target="zRy5J8WuRbFk49f6ZDlZ-68" edge="1">
          <mxGeometry relative="1" as="geometry" />
        </mxCell>
        <mxCell id="zRy5J8WuRbFk49f6ZDlZ-114" value="Amount" style="ellipse;whiteSpace=wrap;html=1;align=center;fontFamily=Helvetica;fontSize=11;fontColor=default;" parent="1" vertex="1">
          <mxGeometry x="1056" y="-346" width="100" height="40" as="geometry" />
        </mxCell>
        <mxCell id="zRy5J8WuRbFk49f6ZDlZ-117" style="edgeStyle=none;shape=connector;rounded=0;orthogonalLoop=1;jettySize=auto;html=1;labelBackgroundColor=default;strokeColor=default;fontFamily=Helvetica;fontSize=11;fontColor=default;startArrow=none;startFill=0;endArrow=none;endFill=0;" parent="1" source="zRy5J8WuRbFk49f6ZDlZ-116" target="zRy5J8WuRbFk49f6ZDlZ-82" edge="1">
          <mxGeometry relative="1" as="geometry" />
        </mxCell>
        <mxCell id="zRy5J8WuRbFk49f6ZDlZ-116" value="Amount" style="ellipse;whiteSpace=wrap;html=1;align=center;fontFamily=Helvetica;fontSize=11;fontColor=default;" parent="1" vertex="1">
          <mxGeometry x="1180" y="-341" width="100" height="40" as="geometry" />
        </mxCell>
        <mxCell id="zRy5J8WuRbFk49f6ZDlZ-120" style="edgeStyle=none;shape=connector;rounded=0;orthogonalLoop=1;jettySize=auto;html=1;labelBackgroundColor=default;strokeColor=default;fontFamily=Helvetica;fontSize=11;fontColor=default;startArrow=none;startFill=0;endArrow=none;endFill=0;entryX=0.25;entryY=1;entryDx=0;entryDy=0;" parent="1" source="zRy5J8WuRbFk49f6ZDlZ-121" target="zRy5J8WuRbFk49f6ZDlZ-51" edge="1">
          <mxGeometry relative="1" as="geometry">
            <mxPoint x="925.9969418569711" y="-653.0038743239184" as="targetPoint" />
          </mxGeometry>
        </mxCell>
        <mxCell id="zRy5J8WuRbFk49f6ZDlZ-121" value="Pays" style="shape=rhombus;perimeter=rhombusPerimeter;whiteSpace=wrap;html=1;align=center;fontFamily=Helvetica;fontSize=11;fontColor=default;" parent="1" vertex="1">
          <mxGeometry x="741.92" y="-553.8500000000001" width="120" height="60" as="geometry" />
        </mxCell>
        <mxCell id="zRy5J8WuRbFk49f6ZDlZ-122" style="edgeStyle=none;shape=connector;rounded=0;orthogonalLoop=1;jettySize=auto;html=1;labelBackgroundColor=default;strokeColor=default;fontFamily=Helvetica;fontSize=11;fontColor=default;startArrow=none;startFill=0;endArrow=none;endFill=0;entryX=1;entryY=0;entryDx=0;entryDy=0;" parent="1" source="zRy5J8WuRbFk49f6ZDlZ-121" target="zRy5J8WuRbFk49f6ZDlZ-21" edge="1">
          <mxGeometry relative="1" as="geometry">
            <mxPoint x="694.92" y="-363.8500000000001" as="targetPoint" />
          </mxGeometry>
        </mxCell>
        <mxCell id="zRy5J8WuRbFk49f6ZDlZ-123" style="edgeStyle=none;shape=connector;rounded=0;orthogonalLoop=1;jettySize=auto;html=1;labelBackgroundColor=default;strokeColor=default;fontFamily=Helvetica;fontSize=11;fontColor=default;startArrow=none;startFill=0;endArrow=none;endFill=0;entryX=0.44;entryY=0.983;entryDx=0;entryDy=0;entryPerimeter=0;" parent="1" source="zRy5J8WuRbFk49f6ZDlZ-124" target="zRy5J8WuRbFk49f6ZDlZ-68" edge="1">
          <mxGeometry relative="1" as="geometry">
            <mxPoint x="1226.88" y="-384.03" as="targetPoint" />
            <mxPoint x="1029.996015132409" y="-115.9719924337958" as="sourcePoint" />
          </mxGeometry>
        </mxCell>
        <mxCell id="zRy5J8WuRbFk49f6ZDlZ-124" value="Compute Hostel fees" style="shape=rhombus;perimeter=rhombusPerimeter;whiteSpace=wrap;html=1;align=center;fontFamily=Helvetica;fontSize=11;fontColor=default;" parent="1" vertex="1">
          <mxGeometry x="851" y="-237" width="120" height="60" as="geometry" />
        </mxCell>
        <mxCell id="zRy5J8WuRbFk49f6ZDlZ-125" style="edgeStyle=none;shape=connector;rounded=0;orthogonalLoop=1;jettySize=auto;html=1;labelBackgroundColor=default;strokeColor=default;fontFamily=Helvetica;fontSize=11;fontColor=default;startArrow=none;startFill=0;endArrow=none;endFill=0;entryX=1;entryY=0;entryDx=0;entryDy=0;" parent="1" source="zRy5J8WuRbFk49f6ZDlZ-124" target="zRy5J8WuRbFk49f6ZDlZ-35" edge="1">
          <mxGeometry relative="1" as="geometry">
            <mxPoint x="1103" y="51.58000000000001" as="targetPoint" />
          </mxGeometry>
        </mxCell>
        <mxCell id="zRy5J8WuRbFk49f6ZDlZ-126" value="Token" style="whiteSpace=wrap;html=1;align=center;" parent="1" vertex="1">
          <mxGeometry x="1690" y="30.5" width="100" height="40" as="geometry" />
        </mxCell>
        <mxCell id="zRy5J8WuRbFk49f6ZDlZ-127" style="edgeStyle=none;shape=connector;rounded=0;orthogonalLoop=1;jettySize=auto;html=1;labelBackgroundColor=default;strokeColor=default;fontFamily=Helvetica;fontSize=11;fontColor=default;startArrow=none;startFill=0;endArrow=none;endFill=0;" parent="1" source="zRy5J8WuRbFk49f6ZDlZ-128" target="zRy5J8WuRbFk49f6ZDlZ-126" edge="1">
          <mxGeometry relative="1" as="geometry" />
        </mxCell>
        <mxCell id="zRy5J8WuRbFk49f6ZDlZ-128" value="Stu_ID" style="ellipse;whiteSpace=wrap;html=1;align=center;fontFamily=Helvetica;fontSize=11;fontColor=default;" parent="1" vertex="1">
          <mxGeometry x="1641" y="-17.5" width="100" height="40" as="geometry" />
        </mxCell>
        <mxCell id="zRy5J8WuRbFk49f6ZDlZ-131" style="edgeStyle=none;shape=connector;rounded=0;orthogonalLoop=1;jettySize=auto;html=1;entryX=0.75;entryY=0;entryDx=0;entryDy=0;labelBackgroundColor=default;strokeColor=default;fontFamily=Helvetica;fontSize=11;fontColor=default;startArrow=none;startFill=0;endArrow=none;endFill=0;" parent="1" source="zRy5J8WuRbFk49f6ZDlZ-132" target="zRy5J8WuRbFk49f6ZDlZ-126" edge="1">
          <mxGeometry relative="1" as="geometry" />
        </mxCell>
        <mxCell id="zRy5J8WuRbFk49f6ZDlZ-132" value="Token_No" style="ellipse;whiteSpace=wrap;html=1;align=center;" parent="1" vertex="1">
          <mxGeometry x="1745" y="-15.5" width="100" height="38" as="geometry" />
        </mxCell>
        <mxCell id="zRy5J8WuRbFk49f6ZDlZ-138" value="Mess" style="whiteSpace=wrap;html=1;align=center;" parent="1" vertex="1">
          <mxGeometry x="1389" y="-54.73000000000002" width="100" height="40" as="geometry" />
        </mxCell>
        <mxCell id="zRy5J8WuRbFk49f6ZDlZ-152" style="edgeStyle=none;shape=connector;rounded=0;orthogonalLoop=1;jettySize=auto;html=1;labelBackgroundColor=default;strokeColor=default;fontFamily=Helvetica;fontSize=11;fontColor=default;startArrow=none;startFill=0;endArrow=none;endFill=0;entryX=0.107;entryY=0.029;entryDx=0;entryDy=0;entryPerimeter=0;" parent="1" source="zRy5J8WuRbFk49f6ZDlZ-153" target="zRy5J8WuRbFk49f6ZDlZ-162" edge="1">
          <mxGeometry relative="1" as="geometry">
            <mxPoint x="237.30434782608677" y="-1090" as="targetPoint" />
          </mxGeometry>
        </mxCell>
        <mxCell id="zRy5J8WuRbFk49f6ZDlZ-153" value="Date" style="ellipse;whiteSpace=wrap;html=1;align=center;fontFamily=Helvetica;fontSize=11;fontColor=default;" parent="1" vertex="1">
          <mxGeometry x="137" y="-1136" width="100" height="40" as="geometry" />
        </mxCell>
        <mxCell id="zRy5J8WuRbFk49f6ZDlZ-156" style="edgeStyle=none;shape=connector;rounded=0;orthogonalLoop=1;jettySize=auto;html=1;entryX=0.68;entryY=0.062;entryDx=0;entryDy=0;labelBackgroundColor=default;strokeColor=default;fontFamily=Helvetica;fontSize=11;fontColor=default;startArrow=none;startFill=0;endArrow=none;endFill=0;entryPerimeter=0;" parent="1" source="zRy5J8WuRbFk49f6ZDlZ-157" target="zRy5J8WuRbFk49f6ZDlZ-162" edge="1">
          <mxGeometry relative="1" as="geometry">
            <mxPoint x="301" y="-1090" as="targetPoint" />
          </mxGeometry>
        </mxCell>
        <mxCell id="zRy5J8WuRbFk49f6ZDlZ-157" value="MOP" style="ellipse;whiteSpace=wrap;html=1;align=center;" parent="1" vertex="1">
          <mxGeometry x="249" y="-1148" width="100" height="38" as="geometry" />
        </mxCell>
        <mxCell id="zRy5J8WuRbFk49f6ZDlZ-158" style="edgeStyle=none;shape=connector;rounded=0;orthogonalLoop=1;jettySize=auto;html=1;labelBackgroundColor=default;strokeColor=default;fontFamily=Helvetica;fontSize=11;fontColor=default;startArrow=none;startFill=0;endArrow=none;endFill=0;" parent="1" source="zRy5J8WuRbFk49f6ZDlZ-159" edge="1">
          <mxGeometry relative="1" as="geometry">
            <mxPoint x="323" y="-1081" as="targetPoint" />
            <Array as="points" />
          </mxGeometry>
        </mxCell>
        <mxCell id="zRy5J8WuRbFk49f6ZDlZ-159" value="&amp;nbsp;Purchase_Amount" style="ellipse;whiteSpace=wrap;html=1;align=center;" parent="1" vertex="1">
          <mxGeometry x="360" y="-1105" width="111" height="40" as="geometry" />
        </mxCell>
        <mxCell id="zRy5J8WuRbFk49f6ZDlZ-160" style="edgeStyle=none;shape=connector;rounded=0;orthogonalLoop=1;jettySize=auto;html=1;labelBackgroundColor=default;strokeColor=default;fontFamily=Helvetica;fontSize=11;fontColor=default;startArrow=none;startFill=0;endArrow=none;endFill=0;entryX=0;entryY=0.5;entryDx=0;entryDy=0;" parent="1" target="zRy5J8WuRbFk49f6ZDlZ-162" edge="1">
          <mxGeometry relative="1" as="geometry">
            <mxPoint x="171.21756227125957" y="-1063.3481334878409" as="sourcePoint" />
            <mxPoint x="226" y="-1066.7532467532467" as="targetPoint" />
          </mxGeometry>
        </mxCell>
        <mxCell id="zRy5J8WuRbFk49f6ZDlZ-162" value="Purchase_Record" style="shape=ext;margin=3;double=1;whiteSpace=wrap;html=1;align=center;fontFamily=Helvetica;fontSize=11;fontColor=default;" parent="1" vertex="1">
          <mxGeometry x="231" y="-1088" width="100" height="40" as="geometry" />
        </mxCell>
        <mxCell id="zRy5J8WuRbFk49f6ZDlZ-165" style="edgeStyle=none;shape=connector;rounded=0;orthogonalLoop=1;jettySize=auto;html=1;labelBackgroundColor=default;strokeColor=default;fontFamily=Helvetica;fontSize=11;fontColor=default;startArrow=none;startFill=0;endArrow=none;endFill=0;entryX=0;entryY=0;entryDx=0;entryDy=0;" parent="1" source="zRy5J8WuRbFk49f6ZDlZ-166" target="zRy5J8WuRbFk49f6ZDlZ-96" edge="1">
          <mxGeometry relative="1" as="geometry">
            <mxPoint x="515" y="-972" as="targetPoint" />
          </mxGeometry>
        </mxCell>
        <mxCell id="zRy5J8WuRbFk49f6ZDlZ-166" value="manages" style="shape=rhombus;perimeter=rhombusPerimeter;whiteSpace=wrap;html=1;align=center;fontFamily=Helvetica;fontSize=11;fontColor=default;" parent="1" vertex="1">
          <mxGeometry x="300" y="-998.0000000000001" width="120" height="60" as="geometry" />
        </mxCell>
        <mxCell id="zRy5J8WuRbFk49f6ZDlZ-167" style="edgeStyle=none;shape=connector;rounded=0;orthogonalLoop=1;jettySize=auto;html=1;labelBackgroundColor=default;strokeColor=default;fontFamily=Helvetica;fontSize=11;fontColor=default;startArrow=none;startFill=0;endArrow=none;endFill=0;" parent="1" source="zRy5J8WuRbFk49f6ZDlZ-166" target="zRy5J8WuRbFk49f6ZDlZ-162" edge="1">
          <mxGeometry relative="1" as="geometry">
            <mxPoint x="882" y="-1124" as="targetPoint" />
          </mxGeometry>
        </mxCell>
        <mxCell id="zRy5J8WuRbFk49f6ZDlZ-168" value="Bill NO" style="ellipse;whiteSpace=wrap;html=1;align=center;fontStyle=4;fontFamily=Helvetica;fontSize=11;fontColor=default;" parent="1" vertex="1">
          <mxGeometry x="76" y="-1082" width="100" height="40" as="geometry" />
        </mxCell>
        <mxCell id="eAh--KmHeIF0BHGOqn6b-110" style="edgeStyle=none;shape=connector;rounded=0;orthogonalLoop=1;jettySize=auto;html=1;labelBackgroundColor=default;strokeColor=default;fontFamily=Helvetica;fontSize=11;fontColor=default;endArrow=none;endFill=0;" parent="1" source="zRy5J8WuRbFk49f6ZDlZ-169" target="zRy5J8WuRbFk49f6ZDlZ-138" edge="1">
          <mxGeometry relative="1" as="geometry" />
        </mxCell>
        <mxCell id="zRy5J8WuRbFk49f6ZDlZ-169" value="Menu" style="ellipse;shape=doubleEllipse;margin=3;whiteSpace=wrap;html=1;align=center;fontFamily=Helvetica;fontSize=11;fontColor=default;" parent="1" vertex="1">
          <mxGeometry x="1414" y="-112" width="100" height="40" as="geometry" />
        </mxCell>
        <mxCell id="zRy5J8WuRbFk49f6ZDlZ-171" style="edgeStyle=none;shape=connector;rounded=0;orthogonalLoop=1;jettySize=auto;html=1;entryX=0.942;entryY=0.999;entryDx=0;entryDy=0;entryPerimeter=0;labelBackgroundColor=default;strokeColor=default;fontFamily=Helvetica;fontSize=11;fontColor=default;startArrow=none;startFill=0;endArrow=none;endFill=0;" parent="1" source="zRy5J8WuRbFk49f6ZDlZ-170" target="zRy5J8WuRbFk49f6ZDlZ-138" edge="1">
          <mxGeometry relative="1" as="geometry" />
        </mxCell>
        <mxCell id="zRy5J8WuRbFk49f6ZDlZ-172" style="edgeStyle=none;shape=connector;rounded=0;orthogonalLoop=1;jettySize=auto;html=1;labelBackgroundColor=default;strokeColor=default;fontFamily=Helvetica;fontSize=11;fontColor=default;startArrow=none;startFill=0;endArrow=none;endFill=0;" parent="1" source="zRy5J8WuRbFk49f6ZDlZ-170" target="zRy5J8WuRbFk49f6ZDlZ-126" edge="1">
          <mxGeometry relative="1" as="geometry" />
        </mxCell>
        <mxCell id="zRy5J8WuRbFk49f6ZDlZ-170" value="Issues" style="shape=rhombus;perimeter=rhombusPerimeter;whiteSpace=wrap;html=1;align=center;fontFamily=Helvetica;fontSize=11;fontColor=default;" parent="1" vertex="1">
          <mxGeometry x="1542" y="5" width="69" height="36" as="geometry" />
        </mxCell>
        <mxCell id="eAh--KmHeIF0BHGOqn6b-109" style="edgeStyle=none;shape=connector;rounded=0;orthogonalLoop=1;jettySize=auto;html=1;labelBackgroundColor=default;strokeColor=default;fontFamily=Helvetica;fontSize=11;fontColor=default;endArrow=none;endFill=0;" parent="1" source="eAh--KmHeIF0BHGOqn6b-111" target="zRy5J8WuRbFk49f6ZDlZ-82" edge="1">
          <mxGeometry relative="1" as="geometry">
            <mxPoint x="1304.3333333333335" y="-253.66666666666674" as="sourcePoint" />
            <Array as="points">
              <mxPoint x="1292" y="-298" />
            </Array>
          </mxGeometry>
        </mxCell>
        <mxCell id="zRy5J8WuRbFk49f6ZDlZ-176" style="edgeStyle=none;shape=connector;rounded=0;orthogonalLoop=1;jettySize=auto;html=1;exitX=1;exitY=1;exitDx=0;exitDy=0;labelBackgroundColor=default;strokeColor=default;fontFamily=Helvetica;fontSize=11;fontColor=default;startArrow=none;startFill=0;endArrow=none;endFill=0;" parent="1" source="zRy5J8WuRbFk49f6ZDlZ-116" target="zRy5J8WuRbFk49f6ZDlZ-116" edge="1">
          <mxGeometry relative="1" as="geometry" />
        </mxCell>
        <mxCell id="zRy5J8WuRbFk49f6ZDlZ-179" style="edgeStyle=none;shape=connector;rounded=0;orthogonalLoop=1;jettySize=auto;html=1;labelBackgroundColor=default;strokeColor=default;fontFamily=Helvetica;fontSize=11;fontColor=default;startArrow=none;startFill=0;endArrow=none;endFill=0;" parent="1" source="zRy5J8WuRbFk49f6ZDlZ-178" target="zRy5J8WuRbFk49f6ZDlZ-162" edge="1">
          <mxGeometry relative="1" as="geometry" />
        </mxCell>
        <mxCell id="zRy5J8WuRbFk49f6ZDlZ-178" value="Items_Purchased" style="ellipse;shape=doubleEllipse;margin=3;whiteSpace=wrap;html=1;align=center;fontFamily=Helvetica;fontSize=11;fontColor=default;" parent="1" vertex="1">
          <mxGeometry x="356" y="-1154" width="100" height="40" as="geometry" />
        </mxCell>
        <mxCell id="eAh--KmHeIF0BHGOqn6b-1" value="Complaints" style="whiteSpace=wrap;html=1;align=center;" parent="1" vertex="1">
          <mxGeometry x="-236" y="-717" width="100" height="40" as="geometry" />
        </mxCell>
        <mxCell id="eAh--KmHeIF0BHGOqn6b-4" style="edgeStyle=none;shape=connector;rounded=0;orthogonalLoop=1;jettySize=auto;html=1;labelBackgroundColor=default;strokeColor=default;fontFamily=Helvetica;fontSize=11;fontColor=default;startArrow=none;startFill=0;endArrow=none;endFill=0;" parent="1" source="eAh--KmHeIF0BHGOqn6b-5" target="eAh--KmHeIF0BHGOqn6b-1" edge="1">
          <mxGeometry relative="1" as="geometry">
            <mxPoint x="68.09522646949404" y="-769.8095063709078" as="targetPoint" />
          </mxGeometry>
        </mxCell>
        <mxCell id="eAh--KmHeIF0BHGOqn6b-5" value="Date" style="ellipse;whiteSpace=wrap;html=1;align=center;" parent="1" vertex="1">
          <mxGeometry x="-44" y="-766" width="100" height="38" as="geometry" />
        </mxCell>
        <mxCell id="zDJugArm91_MOBYHA8zL-10" style="edgeStyle=none;shape=connector;rounded=0;orthogonalLoop=1;jettySize=auto;html=1;labelBackgroundColor=default;strokeColor=default;fontFamily=Helvetica;fontSize=11;fontColor=default;endArrow=none;endFill=0;" edge="1" parent="1" source="eAh--KmHeIF0BHGOqn6b-7" target="eAh--KmHeIF0BHGOqn6b-1">
          <mxGeometry relative="1" as="geometry" />
        </mxCell>
        <mxCell id="eAh--KmHeIF0BHGOqn6b-7" value="Description" style="ellipse;whiteSpace=wrap;html=1;align=center;" parent="1" vertex="1">
          <mxGeometry x="-241" y="-814" width="100" height="38" as="geometry" />
        </mxCell>
        <mxCell id="zDJugArm91_MOBYHA8zL-9" style="edgeStyle=none;shape=connector;rounded=0;orthogonalLoop=1;jettySize=auto;html=1;entryX=0.75;entryY=0;entryDx=0;entryDy=0;labelBackgroundColor=default;strokeColor=default;fontFamily=Helvetica;fontSize=11;fontColor=default;endArrow=none;endFill=0;" edge="1" parent="1" source="eAh--KmHeIF0BHGOqn6b-9" target="eAh--KmHeIF0BHGOqn6b-1">
          <mxGeometry relative="1" as="geometry" />
        </mxCell>
        <mxCell id="eAh--KmHeIF0BHGOqn6b-9" value="Status" style="ellipse;whiteSpace=wrap;html=1;align=center;" parent="1" vertex="1">
          <mxGeometry x="-136" y="-804" width="100" height="38" as="geometry" />
        </mxCell>
        <mxCell id="eAh--KmHeIF0BHGOqn6b-10" style="edgeStyle=none;shape=connector;rounded=0;orthogonalLoop=1;jettySize=auto;html=1;labelBackgroundColor=default;strokeColor=default;fontFamily=Helvetica;fontSize=11;fontColor=default;startArrow=none;startFill=0;endArrow=none;endFill=0;" parent="1" source="eAh--KmHeIF0BHGOqn6b-11" target="eAh--KmHeIF0BHGOqn6b-1" edge="1">
          <mxGeometry relative="1" as="geometry" />
        </mxCell>
        <mxCell id="eAh--KmHeIF0BHGOqn6b-11" value="Stud_ID" style="ellipse;whiteSpace=wrap;html=1;align=center;" parent="1" vertex="1">
          <mxGeometry x="-348" y="-735" width="100" height="38" as="geometry" />
        </mxCell>
        <mxCell id="zDJugArm91_MOBYHA8zL-11" style="edgeStyle=none;shape=connector;rounded=0;orthogonalLoop=1;jettySize=auto;html=1;labelBackgroundColor=default;strokeColor=default;fontFamily=Helvetica;fontSize=11;fontColor=default;endArrow=none;endFill=0;" edge="1" parent="1" source="eAh--KmHeIF0BHGOqn6b-13" target="eAh--KmHeIF0BHGOqn6b-1">
          <mxGeometry relative="1" as="geometry" />
        </mxCell>
        <mxCell id="eAh--KmHeIF0BHGOqn6b-13" value="Comp ID" style="ellipse;whiteSpace=wrap;html=1;align=center;fontStyle=4;" parent="1" vertex="1">
          <mxGeometry x="-358" y="-800" width="100" height="40" as="geometry" />
        </mxCell>
        <mxCell id="eAh--KmHeIF0BHGOqn6b-15" value="Staff" style="whiteSpace=wrap;html=1;align=center;" parent="1" vertex="1">
          <mxGeometry x="-116" y="-182.5" width="100" height="40" as="geometry" />
        </mxCell>
        <mxCell id="eAh--KmHeIF0BHGOqn6b-16" style="rounded=0;orthogonalLoop=1;jettySize=auto;html=1;entryX=0;entryY=0.75;entryDx=0;entryDy=0;startArrow=none;startFill=0;strokeColor=default;endArrow=none;endFill=0;" parent="1" source="eAh--KmHeIF0BHGOqn6b-17" target="eAh--KmHeIF0BHGOqn6b-15" edge="1">
          <mxGeometry relative="1" as="geometry" />
        </mxCell>
        <mxCell id="eAh--KmHeIF0BHGOqn6b-17" value="Name" style="ellipse;whiteSpace=wrap;html=1;align=center;" parent="1" vertex="1">
          <mxGeometry x="-276" y="-160.5" width="100" height="40" as="geometry" />
        </mxCell>
        <mxCell id="eAh--KmHeIF0BHGOqn6b-18" style="rounded=0;orthogonalLoop=1;jettySize=auto;html=1;endArrow=none;endFill=0;" parent="1" source="eAh--KmHeIF0BHGOqn6b-19" target="eAh--KmHeIF0BHGOqn6b-15" edge="1">
          <mxGeometry relative="1" as="geometry" />
        </mxCell>
        <mxCell id="eAh--KmHeIF0BHGOqn6b-19" value="Staff ID" style="ellipse;whiteSpace=wrap;html=1;align=center;fontStyle=4;" parent="1" vertex="1">
          <mxGeometry x="-238" y="-214.5" width="100" height="40" as="geometry" />
        </mxCell>
        <mxCell id="eAh--KmHeIF0BHGOqn6b-22" style="edgeStyle=none;shape=connector;rounded=0;orthogonalLoop=1;jettySize=auto;html=1;labelBackgroundColor=default;strokeColor=default;fontFamily=Helvetica;fontSize=11;fontColor=default;startArrow=none;startFill=0;endArrow=none;endFill=0;" parent="1" source="eAh--KmHeIF0BHGOqn6b-23" edge="1">
          <mxGeometry relative="1" as="geometry">
            <mxPoint x="-87" y="-183.5" as="targetPoint" />
          </mxGeometry>
        </mxCell>
        <mxCell id="eAh--KmHeIF0BHGOqn6b-23" value="Category" style="ellipse;whiteSpace=wrap;html=1;align=center;" parent="1" vertex="1">
          <mxGeometry x="-133" y="-242.5" width="100" height="38" as="geometry" />
        </mxCell>
        <mxCell id="eAh--KmHeIF0BHGOqn6b-24" style="edgeStyle=none;shape=connector;rounded=0;orthogonalLoop=1;jettySize=auto;html=1;labelBackgroundColor=default;strokeColor=default;fontFamily=Helvetica;fontSize=11;fontColor=default;startArrow=none;startFill=0;endArrow=none;endFill=0;" parent="1" source="eAh--KmHeIF0BHGOqn6b-25" edge="1">
          <mxGeometry relative="1" as="geometry">
            <mxPoint x="-14.904773530505963" y="-143.3095063709078" as="targetPoint" />
          </mxGeometry>
        </mxCell>
        <mxCell id="eAh--KmHeIF0BHGOqn6b-25" value="Salary" style="ellipse;whiteSpace=wrap;html=1;align=center;" parent="1" vertex="1">
          <mxGeometry x="22" y="-160.5" width="100" height="38" as="geometry" />
        </mxCell>
        <mxCell id="eAh--KmHeIF0BHGOqn6b-26" style="edgeStyle=none;shape=connector;rounded=0;orthogonalLoop=1;jettySize=auto;html=1;entryX=1;entryY=0.5;entryDx=0;entryDy=0;labelBackgroundColor=default;strokeColor=default;fontFamily=Helvetica;fontSize=11;fontColor=default;startArrow=none;startFill=0;endArrow=none;endFill=0;" parent="1" source="eAh--KmHeIF0BHGOqn6b-27" target="eAh--KmHeIF0BHGOqn6b-15" edge="1">
          <mxGeometry relative="1" as="geometry" />
        </mxCell>
        <mxCell id="eAh--KmHeIF0BHGOqn6b-27" value="Mobile_No" style="ellipse;whiteSpace=wrap;html=1;align=center;" parent="1" vertex="1">
          <mxGeometry x="20" y="-215" width="100" height="38" as="geometry" />
        </mxCell>
        <mxCell id="eAh--KmHeIF0BHGOqn6b-41" value="Expenses" style="whiteSpace=wrap;html=1;align=center;" parent="1" vertex="1">
          <mxGeometry x="1861" y="-518.5" width="100" height="40" as="geometry" />
        </mxCell>
        <mxCell id="eAh--KmHeIF0BHGOqn6b-44" style="rounded=0;orthogonalLoop=1;jettySize=auto;html=1;endArrow=none;endFill=0;" parent="1" source="eAh--KmHeIF0BHGOqn6b-45" target="eAh--KmHeIF0BHGOqn6b-41" edge="1">
          <mxGeometry relative="1" as="geometry" />
        </mxCell>
        <mxCell id="eAh--KmHeIF0BHGOqn6b-45" value="Expense ID" style="ellipse;whiteSpace=wrap;html=1;align=center;fontStyle=4;" parent="1" vertex="1">
          <mxGeometry x="1754" y="-547.5" width="100" height="40" as="geometry" />
        </mxCell>
        <mxCell id="eAh--KmHeIF0BHGOqn6b-46" style="edgeStyle=none;shape=connector;rounded=0;orthogonalLoop=1;jettySize=auto;html=1;labelBackgroundColor=default;strokeColor=default;fontFamily=Helvetica;fontSize=11;fontColor=default;startArrow=none;startFill=0;endArrow=none;endFill=0;" parent="1" source="eAh--KmHeIF0BHGOqn6b-47" target="eAh--KmHeIF0BHGOqn6b-41" edge="1">
          <mxGeometry relative="1" as="geometry" />
        </mxCell>
        <mxCell id="eAh--KmHeIF0BHGOqn6b-47" value="Amount" style="ellipse;whiteSpace=wrap;html=1;align=center;fontFamily=Helvetica;fontSize=11;fontColor=default;" parent="1" vertex="1">
          <mxGeometry x="1865" y="-575" width="100" height="40" as="geometry" />
        </mxCell>
        <mxCell id="eAh--KmHeIF0BHGOqn6b-50" style="edgeStyle=none;shape=connector;rounded=0;orthogonalLoop=1;jettySize=auto;html=1;labelBackgroundColor=default;strokeColor=default;fontFamily=Helvetica;fontSize=11;fontColor=default;startArrow=none;startFill=0;endArrow=none;endFill=0;entryX=1;entryY=0.25;entryDx=0;entryDy=0;" parent="1" source="eAh--KmHeIF0BHGOqn6b-51" target="eAh--KmHeIF0BHGOqn6b-41" edge="1">
          <mxGeometry relative="1" as="geometry">
            <mxPoint x="1962.095226469494" y="-479.3095063709078" as="targetPoint" />
            <Array as="points" />
          </mxGeometry>
        </mxCell>
        <mxCell id="eAh--KmHeIF0BHGOqn6b-51" value="Date" style="ellipse;whiteSpace=wrap;html=1;align=center;" parent="1" vertex="1">
          <mxGeometry x="1975" y="-556.5" width="100" height="38" as="geometry" />
        </mxCell>
        <mxCell id="eAh--KmHeIF0BHGOqn6b-54" style="edgeStyle=none;shape=connector;rounded=0;orthogonalLoop=1;jettySize=auto;html=1;entryX=0.5;entryY=1;entryDx=0;entryDy=0;labelBackgroundColor=default;strokeColor=default;fontFamily=Helvetica;fontSize=11;fontColor=default;startArrow=none;startFill=0;endArrow=none;endFill=0;" parent="1" source="eAh--KmHeIF0BHGOqn6b-57" target="eAh--KmHeIF0BHGOqn6b-41" edge="1">
          <mxGeometry relative="1" as="geometry" />
        </mxCell>
        <mxCell id="eAh--KmHeIF0BHGOqn6b-55" style="edgeStyle=none;shape=connector;rounded=0;orthogonalLoop=1;jettySize=auto;html=1;labelBackgroundColor=default;strokeColor=default;fontFamily=Helvetica;fontSize=11;fontColor=default;startArrow=none;startFill=0;endArrow=none;endFill=0;exitX=0.211;exitY=0.532;exitDx=0;exitDy=0;exitPerimeter=0;" parent="1" source="eAh--KmHeIF0BHGOqn6b-57" edge="1">
          <mxGeometry relative="1" as="geometry">
            <mxPoint x="1856" y="-316.5" as="targetPoint" />
            <Array as="points">
              <mxPoint x="1853" y="-316.5" />
            </Array>
          </mxGeometry>
        </mxCell>
        <mxCell id="eAh--KmHeIF0BHGOqn6b-56" style="edgeStyle=none;shape=connector;rounded=0;orthogonalLoop=1;jettySize=auto;html=1;labelBackgroundColor=default;strokeColor=default;fontFamily=Helvetica;fontSize=11;fontColor=default;startArrow=none;startFill=0;endArrow=none;endFill=0;exitX=0.762;exitY=0.477;exitDx=0;exitDy=0;exitPerimeter=0;" parent="1" source="eAh--KmHeIF0BHGOqn6b-57" target="eAh--KmHeIF0BHGOqn6b-63" edge="1">
          <mxGeometry relative="1" as="geometry" />
        </mxCell>
        <mxCell id="eAh--KmHeIF0BHGOqn6b-57" value="Is a" style="strokeWidth=2;html=1;shape=mxgraph.flowchart.merge_or_storage;whiteSpace=wrap;fontFamily=Helvetica;fontSize=11;fontColor=default;" parent="1" vertex="1">
          <mxGeometry x="1884" y="-392.5" width="86" height="39" as="geometry" />
        </mxCell>
        <mxCell id="eAh--KmHeIF0BHGOqn6b-58" style="edgeStyle=none;shape=connector;rounded=0;orthogonalLoop=1;jettySize=auto;html=1;exitX=0.5;exitY=0;exitDx=0;exitDy=0;labelBackgroundColor=default;strokeColor=default;fontFamily=Helvetica;fontSize=11;fontColor=default;startArrow=none;startFill=0;endArrow=none;endFill=0;" parent="1" edge="1">
          <mxGeometry relative="1" as="geometry">
            <mxPoint x="1834" y="-443.5" as="sourcePoint" />
            <mxPoint x="1834" y="-443.5" as="targetPoint" />
          </mxGeometry>
        </mxCell>
        <mxCell id="eAh--KmHeIF0BHGOqn6b-59" value="Hostel Expense" style="whiteSpace=wrap;html=1;align=center;" parent="1" vertex="1">
          <mxGeometry x="1793" y="-321.5" width="100" height="40" as="geometry" />
        </mxCell>
        <mxCell id="eAh--KmHeIF0BHGOqn6b-60" style="edgeStyle=none;shape=connector;rounded=0;orthogonalLoop=1;jettySize=auto;html=1;labelBackgroundColor=default;strokeColor=default;fontFamily=Helvetica;fontSize=11;fontColor=default;startArrow=none;startFill=0;endArrow=none;endFill=0;" parent="1" source="eAh--KmHeIF0BHGOqn6b-61" target="eAh--KmHeIF0BHGOqn6b-59" edge="1">
          <mxGeometry relative="1" as="geometry" />
        </mxCell>
        <mxCell id="eAh--KmHeIF0BHGOqn6b-61" value="Type" style="ellipse;whiteSpace=wrap;html=1;align=center;fontFamily=Helvetica;fontSize=11;fontColor=default;" parent="1" vertex="1">
          <mxGeometry x="1727" y="-255" width="100" height="40" as="geometry" />
        </mxCell>
        <mxCell id="eAh--KmHeIF0BHGOqn6b-62" style="edgeStyle=none;shape=connector;rounded=0;orthogonalLoop=1;jettySize=auto;html=1;exitX=0.5;exitY=0;exitDx=0;exitDy=0;labelBackgroundColor=default;strokeColor=default;fontFamily=Helvetica;fontSize=11;fontColor=default;startArrow=none;startFill=0;endArrow=none;endFill=0;" parent="1" edge="1">
          <mxGeometry relative="1" as="geometry">
            <mxPoint x="1739" y="-237.49999999999977" as="sourcePoint" />
            <mxPoint x="1739" y="-237.49999999999977" as="targetPoint" />
          </mxGeometry>
        </mxCell>
        <mxCell id="eAh--KmHeIF0BHGOqn6b-63" value="Mess Expense" style="whiteSpace=wrap;html=1;align=center;" parent="1" vertex="1">
          <mxGeometry x="2014" y="-292.5" width="100" height="40" as="geometry" />
        </mxCell>
        <mxCell id="eAh--KmHeIF0BHGOqn6b-64" style="edgeStyle=none;shape=connector;rounded=0;orthogonalLoop=1;jettySize=auto;html=1;labelBackgroundColor=default;strokeColor=default;fontFamily=Helvetica;fontSize=11;fontColor=default;startArrow=none;startFill=0;endArrow=none;endFill=0;" parent="1" source="eAh--KmHeIF0BHGOqn6b-65" target="eAh--KmHeIF0BHGOqn6b-63" edge="1">
          <mxGeometry relative="1" as="geometry" />
        </mxCell>
        <mxCell id="eAh--KmHeIF0BHGOqn6b-65" value="Quantity" style="ellipse;whiteSpace=wrap;html=1;align=center;fontFamily=Helvetica;fontSize=11;fontColor=default;" parent="1" vertex="1">
          <mxGeometry x="2090" y="-226.5" width="100" height="40" as="geometry" />
        </mxCell>
        <mxCell id="eAh--KmHeIF0BHGOqn6b-66" style="edgeStyle=none;shape=connector;rounded=0;orthogonalLoop=1;jettySize=auto;html=1;exitX=0.5;exitY=0;exitDx=0;exitDy=0;labelBackgroundColor=default;strokeColor=default;fontFamily=Helvetica;fontSize=11;fontColor=default;startArrow=none;startFill=0;endArrow=none;endFill=0;" parent="1" edge="1">
          <mxGeometry relative="1" as="geometry">
            <mxPoint x="1989" y="-218.5" as="sourcePoint" />
            <mxPoint x="1989" y="-218.5" as="targetPoint" />
          </mxGeometry>
        </mxCell>
        <mxCell id="eAh--KmHeIF0BHGOqn6b-67" style="edgeStyle=none;shape=connector;rounded=0;orthogonalLoop=1;jettySize=auto;html=1;labelBackgroundColor=default;strokeColor=default;fontFamily=Helvetica;fontSize=11;fontColor=default;startArrow=none;startFill=0;endArrow=none;endFill=0;" parent="1" source="eAh--KmHeIF0BHGOqn6b-68" target="eAh--KmHeIF0BHGOqn6b-59" edge="1">
          <mxGeometry relative="1" as="geometry" />
        </mxCell>
        <mxCell id="eAh--KmHeIF0BHGOqn6b-68" value="Description" style="ellipse;whiteSpace=wrap;html=1;align=center;fontFamily=Helvetica;fontSize=11;fontColor=default;" parent="1" vertex="1">
          <mxGeometry x="1845" y="-255" width="100" height="40" as="geometry" />
        </mxCell>
        <mxCell id="eAh--KmHeIF0BHGOqn6b-69" style="edgeStyle=none;shape=connector;rounded=0;orthogonalLoop=1;jettySize=auto;html=1;labelBackgroundColor=default;strokeColor=default;fontFamily=Helvetica;fontSize=11;fontColor=default;startArrow=none;startFill=0;endArrow=none;endFill=0;" parent="1" source="eAh--KmHeIF0BHGOqn6b-70" target="eAh--KmHeIF0BHGOqn6b-63" edge="1">
          <mxGeometry relative="1" as="geometry" />
        </mxCell>
        <mxCell id="eAh--KmHeIF0BHGOqn6b-70" value="Item" style="ellipse;whiteSpace=wrap;html=1;align=center;fontFamily=Helvetica;fontSize=11;fontColor=default;" parent="1" vertex="1">
          <mxGeometry x="1973" y="-226.5" width="100" height="40" as="geometry" />
        </mxCell>
        <mxCell id="eAh--KmHeIF0BHGOqn6b-71" style="edgeStyle=none;shape=connector;rounded=0;orthogonalLoop=1;jettySize=auto;html=1;exitX=1;exitY=1;exitDx=0;exitDy=0;labelBackgroundColor=default;strokeColor=default;fontFamily=Helvetica;fontSize=11;fontColor=default;startArrow=none;startFill=0;endArrow=none;endFill=0;" parent="1" source="eAh--KmHeIF0BHGOqn6b-70" target="eAh--KmHeIF0BHGOqn6b-70" edge="1">
          <mxGeometry relative="1" as="geometry" />
        </mxCell>
        <mxCell id="eAh--KmHeIF0BHGOqn6b-73" style="edgeStyle=none;shape=connector;rounded=0;orthogonalLoop=1;jettySize=auto;html=1;labelBackgroundColor=default;strokeColor=default;fontFamily=Helvetica;fontSize=11;fontColor=default;startArrow=none;startFill=0;endArrow=none;endFill=0;entryX=1;entryY=0.5;entryDx=0;entryDy=0;" parent="1" source="eAh--KmHeIF0BHGOqn6b-74" target="zRy5J8WuRbFk49f6ZDlZ-138" edge="1">
          <mxGeometry relative="1" as="geometry">
            <mxPoint x="1623" y="-137" as="targetPoint" />
          </mxGeometry>
        </mxCell>
        <mxCell id="eAh--KmHeIF0BHGOqn6b-74" value="has" style="shape=rhombus;perimeter=rhombusPerimeter;whiteSpace=wrap;html=1;align=center;fontFamily=Helvetica;fontSize=11;fontColor=default;" parent="1" vertex="1">
          <mxGeometry x="1676" y="-120.5" width="69" height="36" as="geometry" />
        </mxCell>
        <mxCell id="eAh--KmHeIF0BHGOqn6b-75" style="edgeStyle=none;shape=connector;rounded=0;orthogonalLoop=1;jettySize=auto;html=1;labelBackgroundColor=default;strokeColor=default;fontFamily=Helvetica;fontSize=11;fontColor=default;startArrow=none;startFill=0;endArrow=none;endFill=0;" parent="1" source="eAh--KmHeIF0BHGOqn6b-74" target="eAh--KmHeIF0BHGOqn6b-63" edge="1">
          <mxGeometry relative="1" as="geometry">
            <mxPoint x="1824" y="-83.5" as="targetPoint" />
          </mxGeometry>
        </mxCell>
        <mxCell id="eAh--KmHeIF0BHGOqn6b-76" value="Hostel&amp;nbsp;" style="whiteSpace=wrap;html=1;align=center;" parent="1" vertex="1">
          <mxGeometry x="137" y="-414" width="100" height="40" as="geometry" />
        </mxCell>
        <mxCell id="eAh--KmHeIF0BHGOqn6b-77" style="edgeStyle=none;shape=connector;rounded=0;orthogonalLoop=1;jettySize=auto;html=1;labelBackgroundColor=default;strokeColor=default;fontFamily=Helvetica;fontSize=11;fontColor=default;startArrow=none;startFill=0;endArrow=none;endFill=0;" parent="1" source="eAh--KmHeIF0BHGOqn6b-78" target="eAh--KmHeIF0BHGOqn6b-76" edge="1">
          <mxGeometry relative="1" as="geometry" />
        </mxCell>
        <mxCell id="eAh--KmHeIF0BHGOqn6b-78" value="Hostel_Name" style="ellipse;whiteSpace=wrap;html=1;align=center;fontFamily=Helvetica;fontSize=11;fontColor=default;" parent="1" vertex="1">
          <mxGeometry x="113" y="-489" width="100" height="40" as="geometry" />
        </mxCell>
        <mxCell id="eAh--KmHeIF0BHGOqn6b-81" style="edgeStyle=none;shape=connector;rounded=0;orthogonalLoop=1;jettySize=auto;html=1;entryX=0.75;entryY=0;entryDx=0;entryDy=0;labelBackgroundColor=default;strokeColor=default;fontFamily=Helvetica;fontSize=11;fontColor=default;startArrow=none;startFill=0;endArrow=none;endFill=0;exitX=0.5;exitY=1;exitDx=0;exitDy=0;" parent="1" source="eAh--KmHeIF0BHGOqn6b-97" target="eAh--KmHeIF0BHGOqn6b-76" edge="1">
          <mxGeometry relative="1" as="geometry">
            <mxPoint x="252" y="-586" as="sourcePoint" />
          </mxGeometry>
        </mxCell>
        <mxCell id="eAh--KmHeIF0BHGOqn6b-87" value="manages" style="shape=rhombus;perimeter=rhombusPerimeter;whiteSpace=wrap;html=1;align=center;fontFamily=Helvetica;fontSize=11;fontColor=default;" parent="1" vertex="1">
          <mxGeometry x="-248" y="-626" width="120" height="60" as="geometry" />
        </mxCell>
        <mxCell id="eAh--KmHeIF0BHGOqn6b-91" style="edgeStyle=none;shape=connector;rounded=0;orthogonalLoop=1;jettySize=auto;html=1;labelBackgroundColor=default;strokeColor=default;fontFamily=Helvetica;fontSize=11;fontColor=default;startArrow=none;startFill=0;endArrow=none;endFill=0;exitX=0;exitY=0.5;exitDx=0;exitDy=0;" parent="1" source="zRy5J8WuRbFk49f6ZDlZ-19" target="eAh--KmHeIF0BHGOqn6b-76" edge="1">
          <mxGeometry relative="1" as="geometry">
            <mxPoint x="434" y="-271" as="sourcePoint" />
            <mxPoint x="274" y="-239" as="targetPoint" />
          </mxGeometry>
        </mxCell>
        <mxCell id="eAh--KmHeIF0BHGOqn6b-96" style="rounded=0;orthogonalLoop=1;jettySize=auto;html=1;endArrow=none;endFill=0;" parent="1" source="eAh--KmHeIF0BHGOqn6b-95" target="eAh--KmHeIF0BHGOqn6b-76" edge="1">
          <mxGeometry relative="1" as="geometry" />
        </mxCell>
        <mxCell id="eAh--KmHeIF0BHGOqn6b-95" value="Hostel Id" style="ellipse;whiteSpace=wrap;html=1;align=center;fontStyle=4;" parent="1" vertex="1">
          <mxGeometry x="25" y="-436" width="100" height="40" as="geometry" />
        </mxCell>
        <mxCell id="eAh--KmHeIF0BHGOqn6b-97" value="has" style="shape=rhombus;perimeter=rhombusPerimeter;whiteSpace=wrap;html=1;align=center;fontFamily=Helvetica;fontSize=11;fontColor=default;" parent="1" vertex="1">
          <mxGeometry x="193" y="-649" width="120" height="60" as="geometry" />
        </mxCell>
        <mxCell id="eAh--KmHeIF0BHGOqn6b-101" style="edgeStyle=none;shape=connector;rounded=0;orthogonalLoop=1;jettySize=auto;html=1;entryX=0.25;entryY=1;entryDx=0;entryDy=0;labelBackgroundColor=default;strokeColor=default;fontFamily=Helvetica;fontSize=11;fontColor=default;endArrow=none;endFill=0;" parent="1" source="eAh--KmHeIF0BHGOqn6b-99" target="eAh--KmHeIF0BHGOqn6b-76" edge="1">
          <mxGeometry relative="1" as="geometry" />
        </mxCell>
        <mxCell id="eAh--KmHeIF0BHGOqn6b-99" value="has" style="shape=rhombus;perimeter=rhombusPerimeter;whiteSpace=wrap;html=1;align=center;fontFamily=Helvetica;fontSize=11;fontColor=default;" parent="1" vertex="1">
          <mxGeometry x="-3" y="-325" width="120" height="60" as="geometry" />
        </mxCell>
        <mxCell id="eAh--KmHeIF0BHGOqn6b-103" style="edgeStyle=none;shape=connector;rounded=0;orthogonalLoop=1;jettySize=auto;html=1;labelBackgroundColor=default;strokeColor=default;fontFamily=Helvetica;fontSize=11;fontColor=default;endArrow=none;endFill=0;" parent="1" source="eAh--KmHeIF0BHGOqn6b-102" target="zRy5J8WuRbFk49f6ZDlZ-138" edge="1">
          <mxGeometry relative="1" as="geometry" />
        </mxCell>
        <mxCell id="eAh--KmHeIF0BHGOqn6b-102" value="Hostel_ID" style="ellipse;whiteSpace=wrap;html=1;align=center;" parent="1" vertex="1">
          <mxGeometry x="1276" y="14.999999999999986" width="100" height="38" as="geometry" />
        </mxCell>
        <mxCell id="eAh--KmHeIF0BHGOqn6b-105" style="edgeStyle=none;shape=connector;rounded=0;orthogonalLoop=1;jettySize=auto;html=1;labelBackgroundColor=default;strokeColor=default;fontFamily=Helvetica;fontSize=11;fontColor=default;endArrow=none;endFill=0;" parent="1" source="eAh--KmHeIF0BHGOqn6b-104" target="zRy5J8WuRbFk49f6ZDlZ-138" edge="1">
          <mxGeometry relative="1" as="geometry" />
        </mxCell>
        <mxCell id="eAh--KmHeIF0BHGOqn6b-104" value="Mess ID" style="ellipse;whiteSpace=wrap;html=1;align=center;fontStyle=4;fontFamily=Helvetica;fontSize=11;fontColor=default;" parent="1" vertex="1">
          <mxGeometry x="1379" y="49" width="100" height="40" as="geometry" />
        </mxCell>
        <mxCell id="eAh--KmHeIF0BHGOqn6b-117" style="edgeStyle=none;shape=connector;rounded=0;orthogonalLoop=1;jettySize=auto;html=1;entryX=0.672;entryY=0.978;entryDx=0;entryDy=0;labelBackgroundColor=default;strokeColor=default;fontFamily=Helvetica;fontSize=11;fontColor=default;endArrow=none;endFill=0;entryPerimeter=0;" parent="1" source="eAh--KmHeIF0BHGOqn6b-111" target="zRy5J8WuRbFk49f6ZDlZ-21" edge="1">
          <mxGeometry relative="1" as="geometry">
            <mxPoint x="1236.7342026078236" y="-195.8671013039118" as="sourcePoint" />
            <mxPoint x="686" y="-389" as="targetPoint" />
          </mxGeometry>
        </mxCell>
        <mxCell id="eAh--KmHeIF0BHGOqn6b-118" style="edgeStyle=none;shape=connector;rounded=0;orthogonalLoop=1;jettySize=auto;html=1;labelBackgroundColor=default;strokeColor=default;fontFamily=Helvetica;fontSize=11;fontColor=default;endArrow=none;endFill=0;" parent="1" source="eAh--KmHeIF0BHGOqn6b-111" target="zRy5J8WuRbFk49f6ZDlZ-138" edge="1">
          <mxGeometry relative="1" as="geometry" />
        </mxCell>
        <mxCell id="eAh--KmHeIF0BHGOqn6b-111" value="mess allotment" style="shape=rhombus;perimeter=rhombusPerimeter;whiteSpace=wrap;html=1;align=center;fontFamily=Helvetica;fontSize=11;fontColor=default;" parent="1" vertex="1">
          <mxGeometry x="1221.5" y="-215" width="120" height="60" as="geometry" />
        </mxCell>
        <mxCell id="eAh--KmHeIF0BHGOqn6b-115" style="edgeStyle=none;shape=connector;rounded=0;orthogonalLoop=1;jettySize=auto;html=1;labelBackgroundColor=default;strokeColor=default;fontFamily=Helvetica;fontSize=11;fontColor=default;endArrow=none;endFill=0;" parent="1" source="eAh--KmHeIF0BHGOqn6b-112" target="eAh--KmHeIF0BHGOqn6b-111" edge="1">
          <mxGeometry relative="1" as="geometry" />
        </mxCell>
        <mxCell id="eAh--KmHeIF0BHGOqn6b-112" value="Mess ID" style="ellipse;whiteSpace=wrap;html=1;align=center;fontStyle=4;fontFamily=Helvetica;fontSize=11;fontColor=default;" parent="1" vertex="1">
          <mxGeometry x="1172" y="-152.5" width="67" height="19" as="geometry" />
        </mxCell>
        <mxCell id="eAh--KmHeIF0BHGOqn6b-114" style="edgeStyle=none;shape=connector;rounded=0;orthogonalLoop=1;jettySize=auto;html=1;labelBackgroundColor=default;strokeColor=default;fontFamily=Helvetica;fontSize=11;fontColor=default;endArrow=none;endFill=0;" parent="1" source="eAh--KmHeIF0BHGOqn6b-113" target="eAh--KmHeIF0BHGOqn6b-111" edge="1">
          <mxGeometry relative="1" as="geometry" />
        </mxCell>
        <mxCell id="eAh--KmHeIF0BHGOqn6b-113" value="Stud_ID" style="ellipse;whiteSpace=wrap;html=1;align=center;" parent="1" vertex="1">
          <mxGeometry x="1253" y="-154" width="57" height="22" as="geometry" />
        </mxCell>
        <mxCell id="eAh--KmHeIF0BHGOqn6b-116" style="edgeStyle=none;shape=connector;rounded=0;orthogonalLoop=1;jettySize=auto;html=1;exitX=0.5;exitY=1;exitDx=0;exitDy=0;labelBackgroundColor=default;strokeColor=default;fontFamily=Helvetica;fontSize=11;fontColor=default;endArrow=none;endFill=0;" parent="1" source="eAh--KmHeIF0BHGOqn6b-113" target="eAh--KmHeIF0BHGOqn6b-113" edge="1">
          <mxGeometry relative="1" as="geometry" />
        </mxCell>
        <mxCell id="zDJugArm91_MOBYHA8zL-3" style="rounded=0;orthogonalLoop=1;jettySize=auto;html=1;endArrow=none;endFill=0;" edge="1" parent="1" source="zDJugArm91_MOBYHA8zL-2" target="eAh--KmHeIF0BHGOqn6b-1">
          <mxGeometry relative="1" as="geometry" />
        </mxCell>
        <mxCell id="zDJugArm91_MOBYHA8zL-2" value="Room_No" style="ellipse;whiteSpace=wrap;html=1;align=center;" vertex="1" parent="1">
          <mxGeometry x="-75" y="-716" width="100" height="38" as="geometry" />
        </mxCell>
        <mxCell id="zDJugArm91_MOBYHA8zL-5" value="" style="edgeStyle=none;shape=connector;rounded=0;orthogonalLoop=1;jettySize=auto;html=1;labelBackgroundColor=default;strokeColor=default;fontFamily=Helvetica;fontSize=11;fontColor=default;endArrow=none;endFill=0;" edge="1" parent="1" source="eAh--KmHeIF0BHGOqn6b-76" target="zDJugArm91_MOBYHA8zL-4">
          <mxGeometry relative="1" as="geometry">
            <Array as="points">
              <mxPoint x="827" y="-655" />
            </Array>
            <mxPoint x="834" y="-681" as="sourcePoint" />
            <mxPoint x="1386" y="-838" as="targetPoint" />
          </mxGeometry>
        </mxCell>
        <mxCell id="zDJugArm91_MOBYHA8zL-7" style="edgeStyle=none;shape=connector;rounded=0;orthogonalLoop=1;jettySize=auto;html=1;labelBackgroundColor=default;strokeColor=default;fontFamily=Helvetica;fontSize=11;fontColor=default;endArrow=none;endFill=0;" edge="1" parent="1" source="zDJugArm91_MOBYHA8zL-4" target="eAh--KmHeIF0BHGOqn6b-59">
          <mxGeometry relative="1" as="geometry">
            <mxPoint x="1891" y="-517" as="targetPoint" />
          </mxGeometry>
        </mxCell>
        <mxCell id="zDJugArm91_MOBYHA8zL-4" value="manages" style="shape=rhombus;perimeter=rhombusPerimeter;whiteSpace=wrap;html=1;align=center;fontFamily=Helvetica;fontSize=11;fontColor=default;" vertex="1" parent="1">
          <mxGeometry x="1382" y="-868" width="123" height="60" as="geometry" />
        </mxCell>
        <mxCell id="zDJugArm91_MOBYHA8zL-31" style="edgeStyle=none;shape=connector;rounded=0;orthogonalLoop=1;jettySize=auto;html=1;labelBackgroundColor=default;strokeColor=default;fontFamily=Helvetica;fontSize=11;fontColor=default;endArrow=none;endFill=0;" edge="1" parent="1" source="zDJugArm91_MOBYHA8zL-30" target="zRy5J8WuRbFk49f6ZDlZ-19">
          <mxGeometry relative="1" as="geometry" />
        </mxCell>
        <mxCell id="zDJugArm91_MOBYHA8zL-30" value="Room no" style="ellipse;whiteSpace=wrap;html=1;align=center;fontStyle=4;" vertex="1" parent="1">
          <mxGeometry x="488" y="-240" width="100" height="40" as="geometry" />
        </mxCell>
        <mxCell id="zDJugArm91_MOBYHA8zL-33" style="edgeStyle=none;shape=connector;rounded=0;orthogonalLoop=1;jettySize=auto;html=1;labelBackgroundColor=default;strokeColor=default;fontFamily=Helvetica;fontSize=11;fontColor=default;endArrow=none;endFill=0;" edge="1" parent="1" source="zDJugArm91_MOBYHA8zL-32" target="zRy5J8WuRbFk49f6ZDlZ-19">
          <mxGeometry relative="1" as="geometry" />
        </mxCell>
        <mxCell id="zDJugArm91_MOBYHA8zL-32" value="Stu_Id" style="ellipse;whiteSpace=wrap;html=1;align=center;fontStyle=4;" vertex="1" parent="1">
          <mxGeometry x="547" y="-280" width="100" height="40" as="geometry" />
        </mxCell>
        <mxCell id="zDJugArm91_MOBYHA8zL-35" style="edgeStyle=none;shape=connector;rounded=0;orthogonalLoop=1;jettySize=auto;html=1;labelBackgroundColor=default;strokeColor=default;fontFamily=Helvetica;fontSize=11;fontColor=default;endArrow=none;endFill=0;" edge="1" parent="1" source="zDJugArm91_MOBYHA8zL-34" target="zRy5J8WuRbFk49f6ZDlZ-121">
          <mxGeometry relative="1" as="geometry" />
        </mxCell>
        <mxCell id="zDJugArm91_MOBYHA8zL-34" value="Stu_Id" style="ellipse;whiteSpace=wrap;html=1;align=center;fontStyle=4;" vertex="1" parent="1">
          <mxGeometry x="817" y="-493.85" width="75" height="28.85" as="geometry" />
        </mxCell>
        <mxCell id="zDJugArm91_MOBYHA8zL-37" style="edgeStyle=none;shape=connector;rounded=0;orthogonalLoop=1;jettySize=auto;html=1;labelBackgroundColor=default;strokeColor=default;fontFamily=Helvetica;fontSize=11;fontColor=default;endArrow=none;endFill=0;" edge="1" parent="1" source="zDJugArm91_MOBYHA8zL-36" target="zRy5J8WuRbFk49f6ZDlZ-121">
          <mxGeometry relative="1" as="geometry" />
        </mxCell>
        <mxCell id="zDJugArm91_MOBYHA8zL-36" value="Trans ID" style="ellipse;whiteSpace=wrap;html=1;align=center;fontStyle=4;" vertex="1" parent="1">
          <mxGeometry x="880" y="-518" width="78" height="31" as="geometry" />
        </mxCell>
        <mxCell id="zDJugArm91_MOBYHA8zL-39" value="" style="endArrow=none;html=1;rounded=0;labelBackgroundColor=default;strokeColor=default;fontFamily=Helvetica;fontSize=11;fontColor=default;shape=connector;" edge="1" parent="1" source="eAh--KmHeIF0BHGOqn6b-15" target="eAh--KmHeIF0BHGOqn6b-99">
          <mxGeometry relative="1" as="geometry">
            <mxPoint x="-158" y="-338" as="sourcePoint" />
            <mxPoint x="2" y="-338" as="targetPoint" />
          </mxGeometry>
        </mxCell>
        <mxCell id="zDJugArm91_MOBYHA8zL-40" value="N" style="resizable=0;html=1;whiteSpace=wrap;align=left;verticalAlign=bottom;fontFamily=Helvetica;fontSize=11;fontColor=default;" connectable="0" vertex="1" parent="zDJugArm91_MOBYHA8zL-39">
          <mxGeometry x="-1" relative="1" as="geometry">
            <mxPoint x="14" y="-1" as="offset" />
          </mxGeometry>
        </mxCell>
        <mxCell id="zDJugArm91_MOBYHA8zL-41" value="1" style="resizable=0;html=1;whiteSpace=wrap;align=right;verticalAlign=bottom;fontFamily=Helvetica;fontSize=11;fontColor=default;" connectable="0" vertex="1" parent="zDJugArm91_MOBYHA8zL-39">
          <mxGeometry x="1" relative="1" as="geometry">
            <mxPoint x="98" y="-81" as="offset" />
          </mxGeometry>
        </mxCell>
        <mxCell id="zDJugArm91_MOBYHA8zL-42" value="N" style="resizable=0;html=1;whiteSpace=wrap;align=left;verticalAlign=bottom;fontFamily=Helvetica;fontSize=11;fontColor=default;" connectable="0" vertex="1" parent="zDJugArm91_MOBYHA8zL-39">
          <mxGeometry x="-1" relative="1" as="geometry">
            <mxPoint x="-135" y="-474" as="offset" />
          </mxGeometry>
        </mxCell>
        <mxCell id="zDJugArm91_MOBYHA8zL-44" value="" style="endArrow=none;html=1;rounded=0;dashed=1;dashPattern=1 2;labelBackgroundColor=default;strokeColor=default;fontFamily=Helvetica;fontSize=11;fontColor=default;shape=connector;" edge="1" parent="1" target="zRy5J8WuRbFk49f6ZDlZ-96">
          <mxGeometry relative="1" as="geometry">
            <mxPoint x="250" y="-648" as="sourcePoint" />
            <mxPoint x="410" y="-648" as="targetPoint" />
          </mxGeometry>
        </mxCell>
        <mxCell id="zDJugArm91_MOBYHA8zL-45" value="N" style="resizable=0;html=1;whiteSpace=wrap;align=right;verticalAlign=bottom;fontFamily=Helvetica;fontSize=11;fontColor=default;" connectable="0" vertex="1" parent="zDJugArm91_MOBYHA8zL-44">
          <mxGeometry x="1" relative="1" as="geometry">
            <mxPoint x="10" y="22" as="offset" />
          </mxGeometry>
        </mxCell>
        <mxCell id="zDJugArm91_MOBYHA8zL-46" value="1" style="resizable=0;html=1;whiteSpace=wrap;align=right;verticalAlign=bottom;fontFamily=Helvetica;fontSize=11;fontColor=default;" connectable="0" vertex="1" parent="zDJugArm91_MOBYHA8zL-44">
          <mxGeometry x="1" relative="1" as="geometry">
            <mxPoint x="-21" y="-39" as="offset" />
          </mxGeometry>
        </mxCell>
        <mxCell id="zDJugArm91_MOBYHA8zL-47" value="N" style="resizable=0;html=1;whiteSpace=wrap;align=right;verticalAlign=bottom;fontFamily=Helvetica;fontSize=11;fontColor=default;" connectable="0" vertex="1" parent="zDJugArm91_MOBYHA8zL-44">
          <mxGeometry x="1" relative="1" as="geometry">
            <mxPoint x="-115" y="-192" as="offset" />
          </mxGeometry>
        </mxCell>
        <mxCell id="zDJugArm91_MOBYHA8zL-48" value="N" style="resizable=0;html=1;whiteSpace=wrap;align=right;verticalAlign=bottom;fontFamily=Helvetica;fontSize=11;fontColor=default;" connectable="0" vertex="1" parent="zDJugArm91_MOBYHA8zL-44">
          <mxGeometry x="1" relative="1" as="geometry">
            <mxPoint x="215" y="456" as="offset" />
          </mxGeometry>
        </mxCell>
        <mxCell id="zDJugArm91_MOBYHA8zL-49" value="N" style="resizable=0;html=1;whiteSpace=wrap;align=right;verticalAlign=bottom;fontFamily=Helvetica;fontSize=11;fontColor=default;" connectable="0" vertex="1" parent="zDJugArm91_MOBYHA8zL-44">
          <mxGeometry x="1" relative="1" as="geometry">
            <mxPoint x="-8" y="729" as="offset" />
          </mxGeometry>
        </mxCell>
        <mxCell id="zDJugArm91_MOBYHA8zL-50" value="1" style="resizable=0;html=1;whiteSpace=wrap;align=right;verticalAlign=bottom;fontFamily=Helvetica;fontSize=11;fontColor=default;" connectable="0" vertex="1" parent="zDJugArm91_MOBYHA8zL-44">
          <mxGeometry x="1" relative="1" as="geometry">
            <mxPoint x="270" y="455" as="offset" />
          </mxGeometry>
        </mxCell>
        <mxCell id="zDJugArm91_MOBYHA8zL-51" value="N" style="resizable=0;html=1;whiteSpace=wrap;align=right;verticalAlign=bottom;fontFamily=Helvetica;fontSize=11;fontColor=default;" connectable="0" vertex="1" parent="zDJugArm91_MOBYHA8zL-44">
          <mxGeometry x="1" relative="1" as="geometry">
            <mxPoint x="434" y="792" as="offset" />
          </mxGeometry>
        </mxCell>
        <mxCell id="zDJugArm91_MOBYHA8zL-52" value="1" style="resizable=0;html=1;whiteSpace=wrap;align=right;verticalAlign=bottom;fontFamily=Helvetica;fontSize=11;fontColor=default;" connectable="0" vertex="1" parent="zDJugArm91_MOBYHA8zL-44">
          <mxGeometry x="1" relative="1" as="geometry">
            <mxPoint x="304" y="394" as="offset" />
          </mxGeometry>
        </mxCell>
        <mxCell id="zDJugArm91_MOBYHA8zL-53" value="N" style="resizable=0;html=1;whiteSpace=wrap;align=right;verticalAlign=bottom;fontFamily=Helvetica;fontSize=11;fontColor=default;" connectable="0" vertex="1" parent="zDJugArm91_MOBYHA8zL-44">
          <mxGeometry x="1" relative="1" as="geometry">
            <mxPoint x="645" y="251" as="offset" />
          </mxGeometry>
        </mxCell>
        <mxCell id="zDJugArm91_MOBYHA8zL-54" value="1" style="resizable=0;html=1;whiteSpace=wrap;align=right;verticalAlign=bottom;fontFamily=Helvetica;fontSize=11;fontColor=default;" connectable="0" vertex="1" parent="zDJugArm91_MOBYHA8zL-44">
          <mxGeometry x="1" relative="1" as="geometry">
            <mxPoint x="305" y="455" as="offset" />
          </mxGeometry>
        </mxCell>
        <mxCell id="zDJugArm91_MOBYHA8zL-55" value="1" style="resizable=0;html=1;whiteSpace=wrap;align=right;verticalAlign=bottom;fontFamily=Helvetica;fontSize=11;fontColor=default;" connectable="0" vertex="1" parent="zDJugArm91_MOBYHA8zL-44">
          <mxGeometry x="1" relative="1" as="geometry">
            <mxPoint x="1095" y="829" as="offset" />
          </mxGeometry>
        </mxCell>
        <mxCell id="zDJugArm91_MOBYHA8zL-56" value="N" style="resizable=0;html=1;whiteSpace=wrap;align=right;verticalAlign=bottom;fontFamily=Helvetica;fontSize=11;fontColor=default;" connectable="0" vertex="1" parent="zDJugArm91_MOBYHA8zL-44">
          <mxGeometry x="1" relative="1" as="geometry">
            <mxPoint x="1271" y="897" as="offset" />
          </mxGeometry>
        </mxCell>
        <mxCell id="zDJugArm91_MOBYHA8zL-57" value="1" style="resizable=0;html=1;whiteSpace=wrap;align=right;verticalAlign=bottom;fontFamily=Helvetica;fontSize=11;fontColor=default;" connectable="0" vertex="1" parent="zDJugArm91_MOBYHA8zL-44">
          <mxGeometry x="1" relative="1" as="geometry">
            <mxPoint x="1086" y="798" as="offset" />
          </mxGeometry>
        </mxCell>
        <mxCell id="zDJugArm91_MOBYHA8zL-58" value="N" style="resizable=0;html=1;whiteSpace=wrap;align=right;verticalAlign=bottom;fontFamily=Helvetica;fontSize=11;fontColor=default;" connectable="0" vertex="1" parent="zDJugArm91_MOBYHA8zL-44">
          <mxGeometry x="1" relative="1" as="geometry">
            <mxPoint x="1593" y="592" as="offset" />
          </mxGeometry>
        </mxCell>
        <mxCell id="zDJugArm91_MOBYHA8zL-59" value="N" style="resizable=0;html=1;whiteSpace=wrap;align=right;verticalAlign=bottom;fontFamily=Helvetica;fontSize=11;fontColor=default;" connectable="0" vertex="1" parent="zDJugArm91_MOBYHA8zL-44">
          <mxGeometry x="1" relative="1" as="geometry">
            <mxPoint x="1397" y="512" as="offset" />
          </mxGeometry>
        </mxCell>
        <mxCell id="zDJugArm91_MOBYHA8zL-60" value="1" style="resizable=0;html=1;whiteSpace=wrap;align=right;verticalAlign=bottom;fontFamily=Helvetica;fontSize=11;fontColor=default;" connectable="0" vertex="1" parent="zDJugArm91_MOBYHA8zL-44">
          <mxGeometry x="1" relative="1" as="geometry">
            <mxPoint x="-163" y="440" as="offset" />
          </mxGeometry>
        </mxCell>
        <mxCell id="zDJugArm91_MOBYHA8zL-61" value="1" style="resizable=0;html=1;whiteSpace=wrap;align=right;verticalAlign=bottom;fontFamily=Helvetica;fontSize=11;fontColor=default;" connectable="0" vertex="1" parent="zDJugArm91_MOBYHA8zL-44">
          <mxGeometry x="1" relative="1" as="geometry">
            <mxPoint x="-201" y="419" as="offset" />
          </mxGeometry>
        </mxCell>
        <mxCell id="zDJugArm91_MOBYHA8zL-70" value="1" style="resizable=0;html=1;whiteSpace=wrap;align=right;verticalAlign=bottom;fontFamily=Helvetica;fontSize=11;fontColor=default;" connectable="0" vertex="1" parent="zDJugArm91_MOBYHA8zL-44">
          <mxGeometry x="1" relative="1" as="geometry">
            <mxPoint x="982" y="777" as="offset" />
          </mxGeometry>
        </mxCell>
        <mxCell id="zDJugArm91_MOBYHA8zL-71" value="N" style="resizable=0;html=1;whiteSpace=wrap;align=right;verticalAlign=bottom;fontFamily=Helvetica;fontSize=11;fontColor=default;" connectable="0" vertex="1" parent="zDJugArm91_MOBYHA8zL-44">
          <mxGeometry x="1" relative="1" as="geometry">
            <mxPoint x="879" y="497" as="offset" />
          </mxGeometry>
        </mxCell>
        <mxCell id="zDJugArm91_MOBYHA8zL-72" value="N" style="resizable=0;html=1;whiteSpace=wrap;align=right;verticalAlign=bottom;fontFamily=Helvetica;fontSize=11;fontColor=default;" connectable="0" vertex="1" parent="zDJugArm91_MOBYHA8zL-44">
          <mxGeometry x="1" relative="1" as="geometry">
            <mxPoint x="644" y="462" as="offset" />
          </mxGeometry>
        </mxCell>
        <mxCell id="zDJugArm91_MOBYHA8zL-62" value="" style="endArrow=none;html=1;rounded=0;dashed=1;dashPattern=1 2;labelBackgroundColor=default;strokeColor=default;fontFamily=Helvetica;fontSize=11;fontColor=default;shape=connector;" edge="1" parent="1" source="eAh--KmHeIF0BHGOqn6b-87" target="eAh--KmHeIF0BHGOqn6b-76">
          <mxGeometry relative="1" as="geometry">
            <mxPoint x="-67" y="-517" as="sourcePoint" />
            <mxPoint x="93" y="-517" as="targetPoint" />
          </mxGeometry>
        </mxCell>
        <mxCell id="zDJugArm91_MOBYHA8zL-64" value="1" style="resizable=0;html=1;whiteSpace=wrap;align=right;verticalAlign=bottom;fontFamily=Helvetica;fontSize=11;fontColor=default;" connectable="0" vertex="1" parent="zDJugArm91_MOBYHA8zL-62">
          <mxGeometry x="1" relative="1" as="geometry" />
        </mxCell>
        <mxCell id="zDJugArm91_MOBYHA8zL-65" value="" style="endArrow=none;html=1;rounded=0;dashed=1;dashPattern=1 2;labelBackgroundColor=default;strokeColor=default;fontFamily=Helvetica;fontSize=11;fontColor=default;shape=connector;" edge="1" parent="1" source="eAh--KmHeIF0BHGOqn6b-87" target="eAh--KmHeIF0BHGOqn6b-1">
          <mxGeometry relative="1" as="geometry">
            <mxPoint x="-202" y="-620" as="sourcePoint" />
            <mxPoint x="-42" y="-620" as="targetPoint" />
          </mxGeometry>
        </mxCell>
        <mxCell id="zDJugArm91_MOBYHA8zL-66" value="1" style="resizable=0;html=1;whiteSpace=wrap;align=right;verticalAlign=bottom;fontFamily=Helvetica;fontSize=11;fontColor=default;" connectable="0" vertex="1" parent="zDJugArm91_MOBYHA8zL-65">
          <mxGeometry x="1" relative="1" as="geometry" />
        </mxCell>
        <mxCell id="zDJugArm91_MOBYHA8zL-69" style="edgeStyle=none;shape=connector;rounded=0;orthogonalLoop=1;jettySize=auto;html=1;labelBackgroundColor=default;strokeColor=default;fontFamily=Helvetica;fontSize=11;fontColor=default;endArrow=none;endFill=0;" edge="1" parent="1" source="zDJugArm91_MOBYHA8zL-68" target="eAh--KmHeIF0BHGOqn6b-111">
          <mxGeometry relative="1" as="geometry" />
        </mxCell>
        <mxCell id="zDJugArm91_MOBYHA8zL-68" value="No_of_Tokens_Issued" style="ellipse;whiteSpace=wrap;html=1;align=center;" vertex="1" parent="1">
          <mxGeometry x="1091" y="-199" width="121" height="41" as="geometry" />
        </mxCell>
      </root>
    </mxGraphModel>
  </diagram>
</mxfile>
